<svg width="512" height="512" viewBox="0 0 512 512" fill="none" xmlns="http://www.w3.org/2000/svg">
<path fill-rule="evenodd" clip-rule="evenodd" d="M160.818 91C156.179 91 152.418 94.7608 152.418 99.4V267.957C140.096 279.32 131.17 275.54 119.557 267.065C120.003 264.841 119.918 265.609 119.557 263.815C119.536 263.712 119.514 263.603 119.491 263.489C138.001 251.45 140.331 231.142 128.318 220.994C128.751 201.508 109.983 193.087 89.7504 200.698C89.7504 171.593 62.5877 172.79 56.8974 184.841C50.4184 182.293 41.0908 185.475 38.5617 192.452C24.9869 191.938 17.6971 203.235 23.3874 217.822C29.0778 232.41 43.6198 262.855 56.8974 275.54C57.5477 283.897 62.5877 291.396 73.9685 289.493C97.3107 314.03 118.151 321.621 146.728 316.161C121.911 346.887 120.173 373.301 152.418 386.62L144.555 407.883C142.236 414.152 146.88 420.834 153.556 420.501C182.626 419.052 208.501 411.878 232.716 385.295L256.4 379.203L280.084 385.295C304.299 411.878 330.174 419.052 359.243 420.501C365.919 420.834 370.563 414.152 368.245 407.883L360.381 386.62C392.627 373.301 390.889 346.887 366.072 316.161C389.689 322.861 416.17 313.801 438.3 289.264C449.68 291.167 454.72 283.668 455.371 275.311C468.648 262.626 484.43 232.181 490.121 217.594C495.811 203.006 487.281 191.709 473.706 192.223C471.177 185.247 461.85 182.064 455.371 184.612C449.68 172.561 423.758 173.224 423.758 199.229C403.525 191.618 384.757 201.279 385.19 220.765C373.177 230.913 374.267 251.221 392.777 263.26C392.754 263.375 392.732 263.483 392.711 263.586C392.35 265.381 392.331 265.475 392.777 267.7C378.867 277.214 372.704 279.32 360.381 267.957V99.4C360.381 94.7608 356.621 91 351.981 91H160.818ZM256.4 274.3L230.187 301.573L256.4 310.253L282.613 301.573L256.4 274.3Z" fill="white"/>
<path fill-rule="evenodd" clip-rule="evenodd" d="M316.73 261.987L335.469 252.589C360.551 303.642 394.988 284.285 413.691 259.223L437.468 274.387C402.391 315.275 352.492 324.101 316.73 261.987Z" fill="#19191B"/>
<path d="M479.589 212.24C467.56 238.658 453.074 261.654 443.692 269.158C446.519 283.864 424.641 277.01 418.57 274.66C411.474 271.725 398.301 266.148 407.894 257.114C405.97 256.567 398.229 254.168 393.861 248.119C384.758 235.517 391.422 224.635 398.184 225.975C407.054 227.732 401.854 238.302 408.65 241.706C412.501 243.634 421.298 242.06 422.596 236.434C423.713 231.595 423.144 225.472 415.942 223.426C408.741 221.38 404.252 227.725 398.93 225.656C390.957 222.557 396.506 209.335 409.864 208.053C416.453 207.421 425.869 209.539 430.56 216.715C432.273 206.325 432.86 202.851 434.317 194.572C434.977 190.825 438.7 188.168 442.548 188.696C446.34 189.217 448.794 192.635 448.042 196.314C445.614 208.189 444.47 214.477 441.651 224.503C445.27 215.404 447.033 210.463 450.426 199.951C451.759 195.824 456.406 193.453 460.516 194.825C464.279 196.081 466.175 200.021 464.859 203.774C461.338 213.815 460.724 216.143 454.834 229.663C460.769 220.065 462.468 214.064 466.278 206.459C468.077 202.866 472.56 201.443 476.159 203.063C479.691 204.654 481.22 208.659 479.589 212.24Z" fill="white" stroke="#19191B" stroke-width="2.4"/>
<path d="M437.98 232.756C435.291 239.371 433.758 242.452 430.991 247.414M449.388 236.905C446.592 242.768 442.861 248.802 440.526 251.906" stroke="#19191B" stroke-width="2.4"/>
<path fill-rule="evenodd" clip-rule="evenodd" d="M196.07 261.987L177.331 252.589C152.249 303.642 117.812 284.285 99.1085 259.223L75.3318 274.387C110.409 315.275 160.308 324.101 196.07 261.987Z" fill="#19191B"/>
<path d="M33.2109 212.24C45.2407 238.658 59.726 261.654 69.1078 269.158C66.2813 283.864 88.1597 277.009 94.2307 274.66C101.326 271.725 114.499 266.148 104.906 257.114C106.83 256.567 114.571 254.167 118.94 248.119C128.042 235.516 121.378 224.635 114.616 225.975C105.746 227.732 110.947 238.301 104.15 241.705C100.299 243.634 91.5024 242.059 90.2039 236.434C89.0871 231.595 89.6565 225.471 96.858 223.426C104.059 221.38 108.548 227.725 113.87 225.656C121.843 222.556 116.294 209.335 102.937 208.053C96.3475 207.421 86.9311 209.539 82.2398 216.715C80.5274 206.325 79.9405 202.85 78.4831 194.572C77.8235 190.825 74.1006 188.168 70.2519 188.696C66.4599 189.216 64.0058 192.634 64.7581 196.313C67.1865 208.188 68.33 214.477 71.1493 224.503C67.5304 215.404 65.7676 210.463 62.3739 199.951C61.0415 195.824 56.3943 193.453 52.2839 194.825C48.5217 196.08 46.6254 200.021 47.9413 203.773C51.4628 213.815 52.0766 216.143 57.9661 229.663C52.0308 220.065 50.3318 214.064 46.5223 206.459C44.7228 202.866 40.2401 201.443 36.6416 203.063C33.1088 204.654 31.5801 208.659 33.2109 212.24Z" fill="white" stroke="#19191B" stroke-width="2.4"/>
<path d="M74.8202 232.756C77.5094 239.371 79.0422 242.452 81.809 247.414M63.4123 236.904C66.2078 242.767 69.9397 248.802 72.2738 251.905" stroke="#19191B" stroke-width="2.4"/>
<path d="M261.97 262.208L341.533 347.669L340.27 349.623L201.801 302.661L159.523 405.724C172.54 405.35 187.772 400.973 201.668 393.481C216.211 385.641 229.171 374.457 236.591 361.066L237.062 360.219L237.989 360.5C260.717 367.385 290.545 375.728 316.196 378.24C329.029 379.497 340.714 379.282 349.905 376.758C359.069 374.24 365.616 369.475 368.507 361.691C371.404 353.889 369.609 344.356 364.431 334.062C359.266 323.796 350.835 312.974 340.825 302.738C320.913 282.375 295 264.572 276.785 258.182L261.97 262.208Z" fill="#7984C9" stroke="#19191B" stroke-width="2.4"/>
<path d="M251.964 262.208L172.4 347.669L173.664 349.623L312.133 302.661L354.41 405.724C341.393 405.35 326.162 400.973 312.265 393.481C297.723 385.641 284.762 374.457 277.343 361.066L276.872 360.219L275.944 360.5C253.216 367.385 223.389 375.728 197.737 378.24C184.905 379.497 173.22 379.282 164.028 376.758C154.864 374.24 148.317 369.475 145.427 361.691C142.529 353.889 144.324 344.356 149.503 334.062C154.667 323.796 163.099 312.974 173.108 302.738C193.02 282.375 218.934 264.572 237.148 258.182L251.964 262.208Z" fill="#BEC1E9" stroke="#19191B" stroke-width="2.4"/>
<rect x="164.249" y="104.019" width="183.991" height="157.983" fill="white" stroke="#19191B" stroke-width="2.4"/>
<path d="M235.702 253.773V232.38L256.8 240.608L276.787 232.38V253.773L256.8 244.722L235.702 253.773Z" fill="#19191B"/>
<rect x="176.753" y="115.538" width="158.983" height="110.259" rx="12" fill="#C3D5F4"/>
<path d="M209.884 151.817C220.102 158.226 233.535 158.226 243.753 151.817" stroke="#19191B" stroke-width="2.4"/>
<path d="M207.722 175.053L222.321 187.279C241.011 202.932 269.555 202.932 288.245 187.279L302.844 175.053" stroke="#19191B" stroke-width="2.4"/>
<path d="M265.372 151.817C275.59 158.226 289.023 158.226 299.241 151.817" stroke="#19191B" stroke-width="2.4"/>
</svg>
