<svg width="512" height="512" viewBox="0 0 512 512" fill="none" xmlns="http://www.w3.org/2000/svg">
<path d="M484.837 147.079C483.59 145.275 480.642 142.247 474.904 142.247C473.749 142.247 472.564 142.385 471.374 142.608C470.259 140.779 469.074 138.859 467.832 136.878C467.146 135.245 466.266 133.86 465.205 132.732C457.351 120.474 447.796 106.802 439.382 98.2748C422.498 78.482 397.698 64.8272 373.794 56.1881C320.157 36.8039 261.536 30.8846 205.155 40.5848C172.128 46.2665 138.926 56.7506 110.233 74.4752C102.004 79.5575 93.9578 83.7551 86.8541 89.7014L86.8523 89.6996C86.8523 89.6996 58.7885 109.466 46.3478 134.573C45.5927 135.742 44.9744 137.098 44.4902 138.621C44.4839 138.636 44.4767 138.651 44.4704 138.666L44.4731 138.672C44.0609 139.979 43.7441 141.404 43.5362 142.953C41.6228 142.41 39.6914 142.077 37.8347 142.077C32.2187 142.077 29.2865 145.029 28.0391 146.788C22.7894 154.192 27.8177 164.399 41.4887 174.093C43.7675 175.709 46.0832 177.139 48.3566 178.34C52.6181 212.936 68.4554 240.172 92.5034 254.325C93.8192 261.762 97.7864 268.593 103.669 273.276C108.388 277.033 113.714 279.449 119.275 280.387C119.251 282.064 119.323 283.707 119.488 285.301C120.097 291.161 122 296.592 125.142 301.443C131.446 311.173 142.102 317.607 153.649 318.651C154.606 318.738 155.574 318.782 156.527 318.782C157.433 318.782 158.329 318.742 159.211 318.665C159.371 319.974 159.587 321.284 159.859 322.59C160.03 323.418 160.209 324.178 160.402 324.916L160.453 325.108C160.613 325.72 160.777 326.331 160.967 326.943C161.518 328.704 162.211 330.369 163.042 331.931C154.846 349.566 142.008 385.59 148.033 428.83C129.205 429.379 116.566 437.254 112.335 451.149L108.477 463.82L175.084 457.397L185.801 456.351L182.719 446.031C182.549 445.46 166.451 390.012 192.154 345.822C197.272 345.299 202.69 343.851 208.618 341.432C208.85 341.338 209.202 341.202 209.641 341.032C209.785 340.976 209.935 340.918 210.09 340.858C210.39 342.391 210.775 343.925 211.24 345.428C211.401 345.95 211.569 346.468 211.748 346.98C212.178 348.208 212.653 349.403 213.16 350.527C213.22 350.671 213.283 350.812 213.343 350.943C214.295 352.998 215.436 355.015 216.737 356.94C216.957 357.265 217.182 357.586 217.408 357.9C218.307 359.155 219.192 360.268 220.114 361.305C220.726 361.994 221.371 362.665 222.028 363.302C229.291 370.343 239.147 374.22 249.782 374.22C250.066 374.22 250.351 374.217 250.635 374.211C252.555 374.172 254.553 373.988 256.575 373.662C257.554 373.504 258.555 373.305 259.549 373.071C262.325 372.417 265 371.494 267.52 370.321C267.664 370.259 267.803 370.197 267.914 370.142C272.023 368.172 275.653 365.587 278.734 362.441C281.379 365.451 284.563 368.059 288.123 370.089C288.964 370.57 289.839 371.024 290.74 371.453C300.395 391.962 313.323 409.707 329.278 424.365C327.574 425.855 325.802 427.551 324.102 429.427C314.081 440.493 311.162 452.868 315.886 464.271L320.956 476.508L368.317 429.235L375.93 421.621L366.996 415.608C366.738 415.435 344.005 399.94 327.225 373.903C334.21 372.025 340.328 368.85 345.26 364.5C347.417 362.598 349.351 360.425 351.009 358.043C353.026 355.144 354.59 351.978 355.644 348.712C356.131 348.891 356.62 349.06 357.112 349.223C357.749 349.433 358.39 349.627 359.031 349.811C363.403 351.065 367.835 351.701 372.205 351.701C378.562 351.701 384.515 350.376 389.902 347.762C390.958 347.249 391.997 346.682 392.994 346.076C399.514 342.11 404.659 335.726 407.482 328.101C408.919 324.218 409.687 320.218 409.764 316.208L409.776 316.027L409.77 315.756C409.776 314.672 409.729 313.575 409.63 312.487C409.551 311.624 409.429 310.74 409.258 309.781C409.17 309.286 409.071 308.794 408.961 308.31C408.884 307.975 408.801 307.639 408.713 307.305C409.759 306.861 410.795 306.366 411.81 305.827L411.893 305.783C421.682 300.544 428.968 291.242 431.381 280.898C433.849 270.325 431.281 258.912 425.002 250.067C430.795 246.025 436.048 241.174 440.727 235.545C441.447 235.69 442.193 235.765 442.957 235.765C446.428 235.765 449.808 234.169 451.999 231.497C454.158 228.865 455.006 225.415 454.329 222.031C453.959 220.182 453.462 218.391 452.844 216.667C457.885 206.36 461.513 194.581 463.559 182.051L468.249 176.046C469.186 175.467 470.122 174.864 471.052 174.221C484.841 164.692 489.995 154.546 484.837 147.079Z" fill="white"/>
<path d="M176.884 324.606C176.884 324.606 145.173 374.665 158.677 438.247C158.677 438.247 127.118 433.015 120.811 453.728L174.234 448.577C174.234 448.577 152.086 375.133 196.153 325.203" fill="#7A32BC"/>
<path d="M285.354 325.537C285.354 325.537 292.663 384.342 343.483 424.869C343.483 424.869 315.786 440.877 324.072 460.879L362.059 422.964C362.059 422.964 298.298 380.311 300.613 313.758" fill="#7A32BC"/>
<path d="M477.548 152.115C475.78 149.558 467.76 152.034 459.629 157.648C459.684 157.384 459.742 157.125 459.793 156.857C461.656 147.144 460.689 138.795 457.633 138.21C454.578 137.624 450.59 145.022 448.727 154.734C448.685 154.954 448.652 155.168 448.613 155.386C448.483 155.126 448.36 154.869 448.225 154.608C443.671 145.829 437.74 139.875 434.978 141.307C432.216 142.74 433.669 151.018 438.223 159.797C440.659 164.493 443.484 168.356 446.012 170.736C443.102 202.404 428.472 234.365 395.325 243.247C389.067 244.924 391.662 254.645 397.939 252.963C435.078 243.011 452.34 207.967 455.925 172.341C458.926 171.242 462.461 169.386 466.016 166.93C474.154 161.307 479.316 154.676 477.548 152.115Z" fill="#7A32BC"/>
<path d="M116.361 244.046C83.3261 234.757 69.089 202.619 66.569 170.918C69.1259 168.569 71.9978 164.742 74.4917 160.076C79.1537 151.354 80.708 143.095 77.9639 141.628C75.2198 140.161 69.2159 146.043 64.5548 154.765C64.4162 155.024 64.2902 155.281 64.157 155.538C64.121 155.319 64.0904 155.105 64.0508 154.886C62.3075 145.151 58.4114 137.704 55.3487 138.253C52.286 138.802 51.2168 147.138 52.9601 156.872C53.0078 157.141 53.0636 157.4 53.1149 157.665C45.0536 151.952 37.0643 149.377 35.2652 151.913C33.4652 154.451 38.5466 161.146 46.6133 166.866C50.1377 169.366 53.6495 171.266 56.6366 172.401C59.783 208.068 76.613 243.322 113.627 253.73C119.882 255.489 122.598 245.8 116.361 244.046Z" fill="#7A32BC"/>
<path d="M404.432 164.394C409.722 173.237 411.582 190.72 403.257 198.463C414.021 200.266 423.009 209.792 424.187 220.642C425.363 231.493 418.626 242.724 408.5 246.794C419.492 252.876 425.61 266.648 422.755 278.882C419.899 291.117 408.317 300.757 395.768 301.345C405.394 312.072 400.703 331.016 388.39 338.506C376.077 345.997 359.383 343.209 347.871 334.536C349.782 343.003 345.909 352.113 339.4 357.855C332.891 363.596 324.136 366.289 315.478 366.895C307.583 367.448 299.39 366.315 292.516 362.393C285.641 358.471 280.273 351.49 279.501 343.613C273.37 367.131 241.81 372.371 226.735 355.416C219.756 347.567 216.71 336.383 218.746 326.079C218.275 328.468 207.396 332.36 205.271 333.228C200.075 335.349 194.513 336.987 188.869 337.167C179.891 337.454 172.276 333.411 169.424 324.294C167.472 318.057 167.197 311.303 168.633 304.927C165.443 309.061 159.649 310.296 154.448 309.826C145.671 309.032 137.371 304.022 132.579 296.625C127.54 288.845 127.306 280.156 129.289 271.436C122.229 273.03 114.968 270.946 109.187 266.343C103.076 261.479 99.8833 253.199 101.147 245.49C102.365 238.055 107.328 231.698 113.163 226.93C105.203 223.767 99.9499 215.351 99.5278 206.797C99.1057 198.243 103.073 189.809 109.172 183.797C115.271 177.785 123.328 174.032 131.652 172.015C132.169 160.679 135.451 149.998 144.983 143.421C155.13 136.42 169.27 135.723 180.056 141.692C181.607 125.618 196.769 113.088 212.782 110.999C228.795 108.91 244.924 115.515 257.805 125.253C265.356 115.131 276.646 107.104 289.251 106.337C301.857 105.569 315.265 113.65 317.96 125.988C328.339 118.415 342.449 115.594 354.482 120.097C366.515 124.6 375.603 136.944 374.876 149.772C386.417 148.463 398.47 154.426 404.432 164.394Z" fill="#F571E2"/>
<path d="M388.389 338.505C400.702 331.015 405.393 312.071 395.767 301.344C406.912 300.822 417.279 293.154 421.463 282.877C409.406 279.511 396.347 280.886 384.455 284.879C378.841 286.764 373.089 289.248 367.228 288.399C362.41 287.701 358.235 284.838 353.871 282.679C341.031 276.326 325.333 276.069 312.291 281.998C308.266 283.828 304.203 286.272 299.794 285.936C296.183 285.66 293.02 283.554 289.798 281.901C276.757 275.209 260.272 275.776 247.723 283.35C245.202 284.872 242.477 286.733 239.583 286.189C237.05 285.713 235.256 283.54 233.527 281.63C221.08 267.887 200.554 262.073 182.749 267.248C187.116 247.224 172.572 227.786 155.977 215.76C152.506 213.245 148.665 210.584 147.445 206.475C146.509 203.323 147.331 199.947 148.174 196.768C151.09 185.781 154.283 174.579 153.4 163.245C152.834 155.976 150.19 148.563 145.602 143.027C145.397 143.162 145.183 143.283 144.981 143.422C135.45 149.999 132.167 160.68 131.65 172.016C123.327 174.033 115.27 177.786 109.17 183.798C103.071 189.811 99.1037 198.244 99.5258 206.798C99.9479 215.351 105.201 223.768 113.161 226.931C107.326 231.699 102.364 238.056 101.145 245.491C99.8813 253.2 103.074 261.48 109.185 266.344C114.967 270.947 122.227 273.03 129.287 271.437C127.304 280.157 127.537 288.846 132.577 296.626C137.369 304.023 145.67 309.033 154.447 309.827C159.647 310.298 165.442 309.063 168.631 304.929C167.195 311.306 167.471 318.058 169.422 324.296C172.273 333.412 179.889 337.456 188.867 337.169C194.511 336.989 200.072 335.351 205.269 333.23C207.394 332.362 218.273 328.47 218.744 326.081C216.709 336.384 219.754 347.568 226.733 355.417C241.808 372.372 273.368 367.132 279.499 343.615C280.271 351.492 285.64 358.473 292.514 362.395C299.388 366.317 307.582 367.449 315.475 366.897C324.133 366.29 332.889 363.597 339.397 357.856C345.906 352.115 349.779 343.004 347.868 334.538C359.381 343.208 376.076 345.996 388.389 338.505Z" fill="#EA63DD"/>
<path d="M211.159 211.269C211.11 219.157 206.578 225.524 201.034 225.49C195.491 225.456 191.037 219.033 191.086 211.146C191.134 203.258 195.667 196.89 201.21 196.925C206.753 196.958 211.207 203.38 211.159 211.269Z" fill="#7A32BC"/>
<path d="M303.469 211.836C303.421 219.724 298.888 226.091 293.344 226.057C287.801 226.023 283.347 219.6 283.396 211.713C283.445 203.824 287.977 197.457 293.521 197.492C299.063 197.526 303.518 203.948 303.469 211.836Z" fill="#7A32BC"/>
<path d="M223.931 211.347C224.971 223.861 232.165 233.94 245.316 234.884C258.31 235.816 268.029 224.817 270.565 213.088C271.249 209.928 266.409 208.552 265.723 211.721C260.92 233.927 231.023 236.205 228.961 211.378C228.694 208.172 223.662 208.113 223.931 211.347Z" fill="#7A32BC"/>
<path d="M445.643 223.77C443.094 211.043 434.083 204.893 421.848 202.274C403.235 198.289 382.82 198.548 363.852 197.899C356.308 176.118 335.663 160.368 311.333 160.219C284.56 160.054 262.015 178.829 256.405 203.96C250.541 199.779 242.927 199.299 236.627 202.962C230.998 178.202 208.899 159.589 182.438 159.426C151.595 159.236 126.348 184.174 126.159 215.016C125.969 245.859 150.907 271.106 181.751 271.295C212.592 271.485 237.839 246.547 238.029 215.703C238.044 213.226 237.88 210.791 237.581 208.397C243.107 204.167 250.569 204.504 255.443 209.628C255.206 211.659 255.068 213.719 255.056 215.808C254.866 246.652 279.804 271.898 310.645 272.088C341.486 272.278 366.733 247.34 366.923 216.496C366.952 211.848 366.4 207.331 365.354 203.004C378.057 203.472 390.734 204.214 403.405 205.268C418.479 206.522 437.115 206.755 440.784 225.076C441.421 228.256 446.277 226.939 445.643 223.77ZM181.797 263.751C155.114 263.587 133.539 241.746 133.703 215.062C133.866 188.381 155.708 166.807 182.392 166.971C209.073 167.135 230.647 188.977 230.483 215.657C230.319 242.341 208.478 263.915 181.797 263.751ZM310.691 264.544C284.01 264.381 262.436 242.538 262.6 215.855C262.763 189.174 284.606 167.6 311.286 167.764C337.967 167.928 359.541 189.769 359.378 216.45C359.214 243.133 337.373 264.708 310.691 264.544Z" fill="#FCCD56"/>
<path d="M127.645 115.872C127.816 115.905 127.996 116.026 128.181 116.23C128.369 116.433 128.545 116.642 128.714 116.857C128.884 117.072 129.031 117.277 129.156 117.469C129.284 117.66 129.384 117.808 129.451 117.913C129.85 118.356 130.21 118.919 130.542 119.606C130.874 120.291 131.047 120.955 131.073 121.593L131.155 123.199C131.157 123.803 131.11 124.25 131.025 124.532C130.934 124.817 130.865 125.255 130.804 125.847C130.804 126.152 130.75 126.45 130.646 126.748C130.541 127.041 130.46 127.335 130.402 127.627L129.669 128.793C129.481 129.12 129.259 129.445 128.995 129.772C128.732 130.096 128.464 130.353 128.182 130.537C127.402 131.256 126.626 131.976 125.846 132.698C125.063 133.418 124.221 134.079 123.314 134.682C123.033 134.869 122.706 135.098 122.335 135.37C121.961 135.643 121.639 135.872 121.357 136.058C121.102 136.277 120.769 136.437 120.356 136.536C119.941 136.633 119.63 136.754 119.422 136.893L117.749 137.78C117.549 137.861 117.281 137.988 116.945 138.163C116.608 138.336 116.314 138.506 116.072 138.666L115.236 137.411C115.156 137.214 115.053 137.019 114.925 136.824C114.798 136.633 114.661 136.432 114.523 136.225C114.235 135.864 113.983 135.488 113.773 135.098C113.564 134.71 113.315 134.336 113.024 133.973C112.873 133.823 112.734 133.651 112.607 133.458C112.48 133.266 112.359 133.083 112.241 132.909C112.042 132.54 111.794 132.198 111.493 131.897C111.193 131.595 110.96 131.245 110.795 130.849C110.518 130.129 110.152 129.467 109.699 128.86C109.246 128.256 108.757 127.599 108.237 126.89C107.971 126.564 107.729 126.243 107.521 125.927C107.314 125.613 107.105 125.301 106.894 124.985L105.208 122.334C105.068 122.124 104.883 121.845 104.649 121.496C104.417 121.147 104.17 120.795 103.91 120.44C103.648 120.086 103.404 119.756 103.175 119.454C102.952 119.152 102.793 118.931 102.7 118.79C102.419 118.524 102.19 118.176 102.005 117.744C101.877 117.479 101.73 117.199 101.563 116.907C101.393 116.617 101.215 116.331 101.03 116.05C100.728 115.446 100.319 114.776 99.8012 114.036C99.2828 113.298 98.8301 112.63 98.4368 112.036C98.1569 111.619 97.9193 111.225 97.7222 110.852C97.5251 110.481 97.4099 110.228 97.3739 110.1C97.0121 109.634 96.7592 109.251 96.608 108.948C96.4577 108.647 96.3245 108.407 96.2075 108.234L101.756 104.542C102.454 104.079 103.201 103.644 103.99 103.245C104.779 102.847 105.565 102.438 106.343 102.02C106.705 101.881 106.977 101.799 107.164 101.775C107.457 101.682 107.699 101.597 107.898 101.514C108.097 101.433 108.288 101.382 108.475 101.357C108.765 101.418 109.108 101.442 109.503 101.428C109.897 101.418 110.277 101.402 110.643 101.386C111.01 101.369 111.372 101.381 111.726 101.422C112.079 101.463 112.362 101.564 112.571 101.726C112.756 101.856 112.973 101.976 113.225 102.085C113.474 102.196 113.692 102.316 113.877 102.443C114.262 102.793 114.707 103.289 115.212 103.936C115.716 104.581 116.165 105.279 116.56 106.023C116.954 106.767 117.264 107.516 117.49 108.272C117.718 109.027 117.771 109.698 117.654 110.276C117.619 111.057 117.509 111.746 117.332 112.343C117.149 112.941 116.959 113.433 116.761 113.818C116.585 113.933 116.458 114.082 116.376 114.261C116.296 114.441 116.183 114.579 116.044 114.671C116.438 114.661 116.732 114.604 116.919 114.505C117.102 114.407 117.391 114.352 117.791 114.341C117.858 114.295 118.003 114.25 118.223 114.201C118.447 114.157 118.589 114.109 118.661 114.063C118.94 113.877 119.287 113.772 119.702 113.751C120.113 113.727 120.616 113.671 121.207 113.577C121.36 113.579 121.571 113.575 121.843 113.57C122.118 113.565 122.411 113.569 122.725 113.586C123.039 113.604 123.329 113.628 123.595 113.649C123.865 113.675 124.067 113.714 124.207 113.771C124.671 113.866 124.941 113.964 125.007 114.069C125.077 114.172 125.341 114.303 125.792 114.453C126.188 114.595 126.511 114.782 126.77 115.01C127.028 115.248 127.317 115.534 127.645 115.872ZM108.097 115.431C108.232 115.339 108.383 115.127 108.543 114.794C108.701 114.464 108.754 114.113 108.709 113.739C108.696 113.346 108.639 112.881 108.536 112.344C108.43 111.811 108.152 111.391 107.7 111.09C107.399 110.635 106.974 110.263 106.431 109.972C105.882 109.68 105.308 109.61 104.703 109.761C104.562 109.853 104.47 109.904 104.424 109.91C104.377 109.916 104.282 109.965 104.146 110.057C104.049 110.221 103.976 110.296 103.918 110.285C103.858 110.273 103.743 110.325 103.57 110.442L103.255 110.65C103.858 111.558 104.438 112.506 104.995 113.494C105.55 114.483 106.2 115.385 106.944 116.199L108.097 115.431ZM119.535 131.154C119.673 131.062 119.88 130.899 120.154 130.668C120.427 130.435 120.702 130.203 120.976 129.97C121.247 129.739 121.615 129.444 122.084 129.084C122.282 128.851 122.474 128.633 122.669 128.427C122.857 128.226 123.036 128.021 123.201 127.812C123.595 127.195 123.79 126.637 123.786 126.138C123.78 125.639 123.726 125.045 123.621 124.359C123.542 123.859 123.375 123.365 123.128 122.876C122.879 122.388 122.606 121.965 122.317 121.602C122.156 121.357 122.003 121.132 121.864 120.922C121.722 120.711 121.557 120.497 121.36 120.277C121.149 119.962 120.859 119.616 120.481 119.238C120.103 118.859 119.705 118.659 119.287 118.635C118.785 118.414 118.129 118.411 117.315 118.622C116.501 118.838 115.846 119.06 115.343 119.292C115.03 119.501 114.739 119.685 114.464 119.841C114.19 119.998 113.92 120.065 113.65 120.042L110.303 122.269C110.383 122.316 110.498 122.468 110.64 122.722C110.788 122.978 110.879 123.141 110.926 123.212C111.463 124.015 111.967 124.849 112.443 125.716C112.92 126.582 113.395 127.337 113.87 127.974L115.576 130.315C115.624 130.383 115.716 130.522 115.855 130.731C115.995 130.941 116.146 131.169 116.307 131.414C116.468 131.658 116.617 131.874 116.741 132.067C116.871 132.26 116.958 132.39 117.002 132.459C117.47 132.252 117.905 132.036 118.313 131.815C118.722 131.595 119.126 131.374 119.535 131.154Z" fill="#00B9D9"/>
<path d="M132.311 109.028C132.104 108.663 131.954 108.293 131.86 107.923C131.767 107.552 131.641 107.192 131.491 106.849C131.221 106.235 130.955 105.656 130.689 105.105C130.425 104.559 130.158 103.976 129.893 103.362L128.701 100.659C128.615 100.467 128.518 100.27 128.407 100.066C128.295 99.8642 128.176 99.6761 128.056 99.4997L125.701 94.1474C125.537 93.6695 125.296 93.0998 124.985 92.4365C124.667 91.7741 124.468 91.3484 124.385 91.1558C124.332 91.0406 124.264 90.9326 124.174 90.8336C124.087 90.7364 124.045 90.6401 124.049 90.5474C124.242 90.4637 124.434 90.3557 124.627 90.2243C124.822 90.0929 125.094 89.9507 125.44 89.8004C125.727 89.6276 126.018 89.4539 126.309 89.2802C126.598 89.1074 126.933 88.9346 127.317 88.7645L129.908 87.6296C130.214 87.4937 130.489 87.3848 130.727 87.3011C130.966 87.2201 131.295 87.1346 131.713 87.041C131.767 87.0617 131.812 87.0644 131.851 87.0482C131.907 87.068 132.029 87.0383 132.224 86.9537C132.417 86.7773 132.746 86.6081 133.202 86.456C133.66 86.2985 134.129 86.1383 134.607 85.9745C134.932 85.8773 135.251 85.8287 135.571 85.8251C135.889 85.8215 136.147 85.7801 136.339 85.6937C136.416 85.6604 136.638 85.6442 137.005 85.6415C137.37 85.6433 137.762 85.6541 138.185 85.673C138.606 85.6928 138.99 85.7072 139.335 85.7153C139.685 85.7243 139.925 85.7216 140.054 85.709C140.636 85.6838 141.213 85.7144 141.782 85.808C142.349 85.9016 142.821 86.0699 143.206 86.3147C143.655 86.393 144.034 86.582 144.346 86.8799C144.661 87.1778 144.998 87.4262 145.365 87.6314C145.548 87.7367 145.708 87.8933 145.848 88.1084C145.987 88.3208 146.176 88.4891 146.413 88.6142C146.725 88.7987 147.039 89.1281 147.365 89.6033C147.688 90.0794 147.985 90.6014 148.258 91.1675C148.531 91.7336 148.778 92.3258 149.003 92.9369C149.226 93.548 149.416 94.0925 149.583 94.5695C149.674 94.988 149.752 95.3759 149.821 95.7341C149.887 96.0959 149.978 96.5018 150.083 96.9581C150.13 97.1669 150.135 97.4153 150.104 97.7051C150.069 97.9958 150.056 98.2541 150.064 98.48C150.078 99.3413 149.894 100.271 149.505 101.266L149.237 102.067C149.119 102.213 149.027 102.368 148.964 102.534C148.9 102.697 148.813 102.875 148.712 103.055C148.601 103.334 148.452 103.582 148.253 103.807C148.054 104.032 147.9 104.283 147.794 104.557C147.254 104.794 146.846 105.09 146.567 105.441C146.285 105.792 145.883 105.994 145.355 106.042C144.97 106.212 144.646 106.411 144.384 106.64C144.117 106.871 143.83 107.055 143.524 107.189L143.179 107.342C143.263 107.535 143.618 107.766 144.243 108.042C144.871 108.317 145.361 108.605 145.721 108.904C146.161 109.076 146.563 109.232 146.925 109.372C147.283 109.51 147.69 109.686 148.149 109.895C148.851 110.138 149.381 110.35 149.737 110.536C150.091 110.723 150.622 110.937 151.326 111.177C151.638 111.27 152.08 111.522 152.651 111.935C153.224 112.347 153.665 112.6 153.98 112.689C154.36 112.932 154.608 113.1 154.715 113.191C154.824 113.28 154.987 113.37 155.21 113.452C155.703 113.742 156.115 114.005 156.45 114.247C156.787 114.488 157.138 114.713 157.501 114.919C157.46 115.349 157.347 115.82 157.164 116.338C156.977 116.853 156.687 117.383 156.283 117.928C156.154 117.846 155.992 117.789 155.797 117.762C155.602 117.733 155.432 117.659 155.286 117.539C155.176 117.496 154.816 117.38 154.209 117.189C153.598 117.002 153.062 116.8 152.603 116.589C152.294 116.406 151.819 116.19 151.188 115.944C150.551 115.697 149.863 115.461 149.124 115.236C148.383 115.012 147.699 114.753 147.066 114.459C146.432 114.165 145.942 113.937 145.591 113.766C145.428 113.702 145.156 113.604 144.776 113.473C144.399 113.343 144.001 113.22 143.586 113.104C143.17 112.992 142.772 112.867 142.394 112.733C142.014 112.604 141.742 112.506 141.577 112.443C141.536 112.555 141.516 112.64 141.523 112.707C141.528 112.773 141.529 112.853 141.525 112.946C141.522 113.041 141.536 113.126 141.567 113.203C141.906 113.97 142.194 114.702 142.433 115.4C142.669 116.097 142.93 116.772 143.217 117.423C143.37 117.768 143.517 118.129 143.658 118.5C143.798 118.873 143.971 119.291 144.173 119.751L145.059 121.764C144.979 121.798 144.851 121.865 144.667 121.971C144.485 122.074 144.288 122.194 144.072 122.332C143.684 122.597 143.286 122.805 142.875 122.964C142.459 123.12 142.065 123.286 141.683 123.455C141.181 123.673 140.769 123.855 140.445 123.998C140.115 124.143 139.767 124.205 139.391 124.186C139.2 124.272 139.085 124.322 139.047 124.339C139.01 124.355 138.851 124.309 138.576 124.203L136.634 119.629L136.421 118.831L135.497 117.038L133.029 111.117C132.886 110.585 132.755 110.208 132.635 109.986C132.507 109.765 132.402 109.446 132.311 109.028ZM139.363 97.8905C139.238 97.3955 139.073 96.9104 138.863 96.4298C138.652 95.951 138.441 95.5298 138.231 95.1599C138.13 94.9304 137.988 94.8134 137.801 94.8008C137.599 94.6613 137.436 94.574 137.306 94.5398C137.176 94.5056 137.038 94.475 136.888 94.4489C136.519 94.3364 136.149 94.2815 135.784 94.2815C135.417 94.2824 135.065 94.3112 134.723 94.3688C134.61 94.421 134.547 94.5398 134.538 94.7261C134.534 94.8188 134.537 94.8845 134.557 94.9241L137.138 100.795L138.117 100.365C138.223 100.089 138.369 99.8984 138.553 99.7949C138.737 99.6914 138.862 99.5114 138.933 99.2495C139.076 98.957 139.195 98.7329 139.29 98.5808C139.381 98.4224 139.404 98.1929 139.363 97.8905Z" fill="#00B9D9"/>
<path d="M162.126 105.261C162.139 104.372 162.167 103.491 162.209 102.616C162.252 101.742 162.277 100.86 162.293 99.9721C162.293 99.3088 162.352 98.6257 162.473 97.9255C162.593 97.2208 162.696 96.5926 162.773 96.0355C162.748 95.2939 162.778 94.6774 162.855 94.1869C162.938 93.6973 162.978 93.385 162.977 93.2527C162.953 93.1717 162.975 92.9449 163.051 92.566C163.124 92.188 163.157 91.6012 163.161 90.8074C163.161 90.4114 163.144 89.9956 163.112 89.5636C163.08 89.1343 163.083 88.7122 163.124 88.3018L163.41 84.3643C163.424 83.8765 163.426 83.5111 163.412 83.2726C163.399 83.0332 163.386 82.8271 163.373 82.6552C163.359 82.4851 163.34 82.2925 163.314 82.0792C163.287 81.8686 163.3 81.5086 163.356 81.0055C163.407 80.5033 163.438 80.0281 163.447 79.5844C163.452 79.1407 163.486 78.6673 163.538 78.1633C163.539 77.8978 163.537 77.6332 163.541 77.3695C163.54 77.1022 163.539 76.8367 163.542 76.5739C163.557 76.2157 163.562 75.9025 163.564 75.637C163.564 75.3742 163.551 75.0691 163.525 74.7235C163.575 74.6164 163.599 74.4895 163.593 74.3365C163.586 74.1862 163.611 73.99 163.665 73.7497C163.852 73.513 164.019 73.3582 164.172 73.2817C164.322 73.2106 164.481 73.1476 164.641 73.0954L167.383 72.1846C167.517 72.3151 167.605 72.4555 167.652 72.5932C167.697 72.7318 167.787 72.8686 167.919 73L168.455 73.8172L168.793 74.2339L170.064 75.8656L172.148 78.553L172.823 79.1902C172.928 79.246 173.064 79.3864 173.231 79.6177C173.394 79.8517 173.621 80.1406 173.914 80.4853C174.284 80.938 174.687 81.4537 175.124 82.0387C175.559 82.6219 175.984 83.1997 176.397 83.7694C177.003 84.6721 177.477 85.3309 177.812 85.7485C178.149 86.1679 178.504 86.6026 178.875 87.0526C179.047 87.1714 179.185 87.3253 179.291 87.5116C179.397 87.6979 179.522 87.8779 179.667 88.0489L181.255 90.2386L182.983 92.0494C183.222 92.3689 183.464 92.6731 183.718 92.9665C183.968 93.2581 184.244 93.5299 184.55 93.7819C185.13 94.4722 185.634 95.113 186.051 95.7043C186.466 96.2938 186.962 96.9355 187.547 97.6249C187.822 97.93 188.106 98.2108 188.391 98.4691C188.675 98.7283 188.936 99.019 189.173 99.3367C189.32 99.5104 189.466 99.6814 189.612 99.8551C189.754 100.027 189.903 100.2 190.046 100.372C190.367 100.663 190.656 100.976 190.922 101.307C191.186 101.638 191.49 101.993 191.835 102.363C191.993 102.574 192.172 102.779 192.371 102.981C192.567 103.181 192.722 103.369 192.826 103.558C192.627 103.622 192.421 103.668 192.211 103.695C191.997 103.722 191.811 103.759 191.655 103.812L190.638 104.15C190.283 104.267 189.964 104.384 189.693 104.497C189.423 104.608 189.186 104.697 188.99 104.763C188.631 104.352 188.188 103.98 187.659 103.649C187.127 103.317 186.552 102.878 185.93 102.333C185.784 102.162 185.645 102.008 185.511 101.875C185.38 101.743 185.25 101.612 185.116 101.476C184.958 101.265 184.617 101.003 184.094 100.689C183.571 100.379 183.247 100.109 183.131 99.8821C182.695 99.631 182.367 99.4186 182.158 99.2449C181.943 99.073 181.708 98.9209 181.443 98.7859C181.283 98.8399 181.08 98.8975 180.836 98.9551C180.589 99.0163 180.36 99.0568 180.15 99.0829C179.897 99.1234 179.632 99.1882 179.354 99.2809L177.921 99.7561C177.723 99.8218 177.516 99.9019 177.306 99.991C177.092 100.086 176.773 100.215 176.34 100.38C175.907 100.545 175.319 100.761 174.57 101.033C173.821 101.305 172.807 101.65 171.535 102.073L171.118 102.211C170.8 102.317 170.563 102.43 170.401 102.549C170.244 102.669 169.983 102.721 169.628 102.705C169.484 102.668 169.188 102.743 168.741 102.934C168.296 103.125 168.003 103.268 167.858 103.36L167.098 103.677L166.938 104.192C166.939 104.458 166.894 104.784 166.801 105.168C166.706 105.553 166.613 105.936 166.52 106.32C166.428 106.704 166.343 107.085 166.271 107.464C166.198 107.842 166.153 108.142 166.142 108.369L166.078 109.581L165.497 112.82C165.471 113.005 165.377 113.124 165.219 113.178C165.06 113.232 164.955 113.308 164.899 113.416L161.856 114.426C161.646 114.317 161.533 114.246 161.519 114.206C161.506 114.165 161.545 114.02 161.64 113.768C161.587 113.607 161.571 113.36 161.591 113.025C161.612 112.685 161.595 112.437 161.544 112.279C161.635 111.894 161.697 111.511 161.723 111.125C161.75 110.741 161.79 110.364 161.845 109.992L162.126 105.261ZM169.748 86.3029C169.572 86.4496 169.467 86.5954 169.428 86.7403C169.388 86.8879 169.355 87.0553 169.328 87.2371C169.356 87.8473 169.326 88.4638 169.245 89.0857C169.164 89.7094 169.1 90.3403 169.047 90.9748C168.976 91.4383 168.901 91.8739 168.816 92.2762C168.727 92.6812 168.671 93.1087 168.642 93.5596C168.551 94.474 168.452 95.3767 168.352 96.274C168.251 97.1668 168.107 98.0659 167.92 98.9677L168.278 98.848C168.594 98.7427 168.89 98.668 169.164 98.6212C169.434 98.5744 169.697 98.4655 169.952 98.2945C170.161 98.1361 170.382 98.0398 170.615 98.0074C170.846 97.9759 171.063 97.9246 171.262 97.8589C171.939 97.6339 172.633 97.3927 173.341 97.1353C174.051 96.8779 174.856 96.6448 175.759 96.4333C176.21 96.3262 176.617 96.1921 176.982 96.0283C177.345 95.8618 177.727 95.7142 178.124 95.5819L178.665 95.401C178.569 95.2579 178.476 95.1427 178.386 95.0653C178.29 94.9861 178.186 94.897 178.066 94.8034C177.804 94.5406 177.541 94.3183 177.282 94.1374C177.025 93.9583 176.774 93.7099 176.538 93.3904L173.062 89.9083C172.918 89.7346 172.751 89.5033 172.567 89.209L169.748 86.3029Z" fill="#00B9D9"/>
<path d="M201.473 95.4398C201.496 95.5235 201.534 95.6747 201.59 95.8961C201.647 96.1202 201.708 96.3659 201.774 96.6287C201.843 96.8924 201.908 97.148 201.966 97.3901C202.029 97.634 202.077 97.8185 202.108 97.9382C202.385 99.0362 202.584 99.7868 202.707 100.187C202.83 100.588 202.965 101.071 203.11 101.641C203.138 101.763 203.094 101.893 202.978 102.03C202.862 102.168 202.726 102.277 202.574 102.361L198.674 103.346L198.504 102.675L197.104 98.4224C196.91 97.652 196.71 96.9032 196.505 96.1751C196.302 95.4515 196.087 94.727 195.862 94.0052L195.443 92.3609C195.3 91.7912 195.138 91.2368 194.96 90.6977C194.78 90.1586 194.658 89.597 194.597 89.0075L194.072 86.9339C193.888 86.204 193.697 85.4849 193.495 84.7793C193.295 84.0737 193.087 83.3789 192.871 82.7003C192.821 82.4969 192.787 82.3232 192.771 82.172C192.758 82.0253 192.722 81.8498 192.674 81.6455C192.456 80.7941 192.25 80.0237 192.054 79.3379C191.86 78.6521 191.679 77.9744 191.512 77.3021C191.338 76.6343 191.162 75.9314 190.977 75.2015C190.792 74.4671 190.569 73.6616 190.302 72.7769L189.871 71.0687C189.716 70.634 189.569 70.184 189.431 69.7223C189.292 69.2606 189.168 68.8061 189.054 68.3588L189.007 68.1761C188.967 68.0132 188.952 67.8674 188.961 67.7324C188.99 67.6847 189.2 67.5668 189.583 67.3796C189.774 67.2887 190.041 67.2239 190.376 67.1798C190.681 67.1906 191.035 67.133 191.438 67.0097C191.839 66.8891 192.284 66.764 192.77 66.6416C193.177 66.5381 193.522 66.4967 193.806 66.5093C194.091 66.5237 194.244 66.5732 194.264 66.6542L196.668 76.1627C196.708 76.4984 196.78 76.8143 196.877 77.1149C196.974 77.4137 197.043 77.7323 197.086 78.0671C197.156 78.5252 197.258 78.9743 197.391 79.4153C197.527 79.8563 197.649 80.3018 197.763 80.7491L198.025 81.7841C198.056 81.9065 198.09 82.0397 198.123 82.1828C198.161 82.325 198.179 82.4825 198.179 82.6553C198.159 82.7471 198.179 82.9037 198.233 83.1278C198.29 83.3519 198.362 83.5814 198.443 83.8199C198.524 84.0584 198.604 84.296 198.688 84.5363C198.771 84.7739 198.823 84.935 198.843 85.016C199.16 86.1041 199.315 86.7566 199.304 86.9744C199.296 87.194 199.307 87.3623 199.335 87.4847C199.44 88.0643 199.592 88.6313 199.799 89.1848C200.004 89.7383 200.179 90.299 200.322 90.8687C200.556 91.6292 200.76 92.3915 200.929 93.1448C201.097 93.9035 201.278 94.6694 201.473 95.4398Z" fill="#00B9D9"/>
<path d="M217.071 74.359C218.144 75.619 219.28 76.9519 220.484 78.3577C221.688 79.7635 222.977 81.2404 224.354 82.7857C224.663 83.3284 225.015 83.809 225.407 84.2293C225.8 84.6496 226.188 84.9979 226.577 85.2697C226.798 85.5712 227.078 85.9375 227.408 86.3668C227.736 86.8015 228.055 87.1579 228.361 87.4459L228.443 87.1768L227.891 84.016C227.876 83.9359 227.875 83.8819 227.894 83.8567C227.911 83.8342 227.915 83.7793 227.899 83.6974C227.566 82.7758 227.385 81.9244 227.356 81.1441C227.326 80.3638 227.193 79.5457 226.957 78.6907C226.946 78.3964 226.921 78.1246 226.881 77.8762C226.836 77.6269 226.791 77.3794 226.746 77.1319L226.06 73.9333L224.717 66.2527C224.686 66.0907 224.644 65.7784 224.583 65.3212C224.527 64.8631 224.45 64.3546 224.348 63.7957C224.252 63.2386 224.158 62.6932 224.063 62.1541C223.968 61.6177 223.894 61.2055 223.845 60.9166C223.818 60.751 223.821 60.5917 223.857 60.436C223.894 60.2803 224.075 60.1723 224.406 60.1165L226.45 59.7601C226.824 59.6944 227.268 59.6782 227.785 59.7178C228.301 59.7529 228.643 59.7592 228.81 59.7295L229.117 59.6737C229.362 61.0786 229.622 62.5141 229.902 63.9739C230.179 65.4364 230.443 66.8143 230.691 68.1121C230.937 69.4081 231.18 70.6006 231.412 71.6887C231.644 72.7768 231.84 73.6444 231.999 74.2978C232.013 74.6362 232.06 74.9584 232.134 75.2617C232.206 75.5677 232.253 75.8899 232.272 76.2274C232.308 76.6918 232.377 77.1454 232.479 77.5972C232.577 78.0472 232.667 78.499 232.746 78.9535L233.269 81.9253C233.503 83.0341 233.65 83.9251 233.702 84.5947C233.756 85.2661 233.793 85.6639 233.814 85.7881C233.875 86.3758 233.957 86.9545 234.057 87.5323C234.16 88.1119 234.26 88.6897 234.36 89.2675C234.539 90.046 234.675 90.8182 234.77 91.5904C234.859 92.3599 234.996 93.1339 235.175 93.9124C235.233 94.24 235.287 94.5514 235.337 94.8403C235.387 95.1292 235.461 95.4343 235.561 95.7592C235.598 95.9653 235.388 96.1066 234.936 96.1876L232.892 96.544C232.409 96.7114 232.02 96.8041 231.723 96.8131C231.429 96.8212 231.219 96.8374 231.095 96.859C230.794 96.3577 230.532 95.9473 230.305 95.626C230.076 95.3029 229.842 94.9942 229.598 94.6945C229.352 94.3975 229.1 94.0906 228.832 93.7765C228.564 93.4624 228.243 93.0808 227.868 92.638C227.708 92.4526 227.492 92.2024 227.223 91.8883C226.955 91.5724 226.722 91.3276 226.521 91.1476C226.222 90.9037 225.955 90.5986 225.721 90.2359C225.487 89.8732 225.157 89.5591 224.728 89.2927C224.045 88.5601 223.379 87.796 222.729 86.9932C222.077 86.1913 221.383 85.3894 220.647 84.5821C219.917 83.8162 219.098 83.0314 218.194 82.234C217.287 81.4348 216.36 80.5213 215.415 79.4953C214.947 78.7699 214.322 78.0499 213.536 77.3371C212.751 76.6216 212.067 75.9322 211.484 75.2707C211.471 75.1879 211.489 75.3553 211.541 75.7711C211.591 76.1878 211.663 76.6522 211.753 77.1679C211.844 77.6854 211.943 78.3802 212.054 79.2541L212.14 79.7491C212.239 80.074 212.295 80.3926 212.311 80.7112C212.321 81.0262 212.357 81.3511 212.417 81.6805L213.635 89.3818L214.322 92.5804C214.364 92.8279 214.418 93.0736 214.483 93.3175C214.546 93.5614 214.583 93.8332 214.594 94.1275C214.779 94.6918 214.905 95.2975 214.976 95.9446C215.046 96.5917 215.154 97.2199 215.304 97.8337C215.447 98.4034 215.512 98.8192 215.49 99.0775C215.473 99.3367 215.428 99.5131 215.361 99.6112L210.468 100.468C210.138 100.526 209.799 100.595 209.452 100.678C209.106 100.76 208.764 100.808 208.427 100.827C208.386 100.833 208.323 100.662 208.24 100.316C208.158 99.9694 208.074 99.5563 207.992 99.0838C207.909 98.6095 207.824 98.1235 207.738 97.6258C207.651 97.1308 207.587 96.7591 207.543 96.5116C207.441 95.9347 207.348 95.3434 207.267 94.7431C207.18 94.1392 207.07 93.5542 206.926 92.9818C206.823 92.4049 206.743 91.8325 206.688 91.2673C206.631 90.703 206.533 90.1369 206.389 89.5645C206.318 89.1514 206.249 88.8121 206.182 88.5475C206.116 88.2829 206.062 88.0471 206.025 87.841L205.74 86.9338C205.724 86.8519 205.726 86.7988 205.742 86.7745C205.758 86.7502 205.763 86.6971 205.747 86.6125C205.414 85.6927 205.199 84.772 205.105 83.8522C205.007 82.9333 204.843 82.0477 204.606 81.1954C204.6 80.8984 204.572 80.6266 204.527 80.3791C204.485 80.1316 204.44 79.8814 204.399 79.6366L203.709 76.4362L202.553 68.7259C202.497 68.3956 202.429 68.077 202.353 67.7719C202.281 67.4659 202.193 67.1509 202.093 66.8269L202.368 66.2068C202.572 66.1708 202.921 66.097 203.414 65.9899C203.905 65.8846 204.485 65.7937 205.153 65.719C205.691 65.6236 206.089 65.5228 206.343 65.4148C206.604 65.3041 206.896 65.2204 207.226 65.1646C207.432 65.1277 207.614 65.1268 207.769 65.1655C207.925 65.1997 208.128 65.197 208.373 65.1529L209.674 64.9252C209.856 65.2366 210.092 65.5561 210.384 65.8864C210.674 66.2176 210.962 66.5749 211.242 66.9502C211.856 67.7782 212.33 68.4937 212.67 69.0949C213.009 69.6961 213.307 70.12 213.563 70.372C213.766 70.5511 214.021 70.804 214.336 71.1298C214.65 71.4583 214.965 71.8084 215.286 72.1783C215.604 72.5464 215.916 72.928 216.22 73.3222C216.524 73.7191 216.808 74.0656 217.071 74.359Z" fill="#00B9D9"/>
<path d="M251.625 56.3221C252.032 56.1313 252.659 56.0548 253.5 56.0926C254.342 56.1295 255.016 56.134 255.517 56.1052C255.811 56.0899 256.199 56.0782 256.681 56.0719C257.161 56.0683 257.677 56.08 258.226 56.1106C258.769 56.1421 259.288 56.1574 259.77 56.152C260.251 56.1466 260.62 56.1358 260.871 56.1232C261.245 56.0998 261.77 56.0827 262.442 56.0665C263.111 56.0485 263.621 56.1151 263.964 56.2636C264.134 56.3383 264.507 56.3905 265.075 56.4202C265.643 56.4544 265.99 56.4859 266.122 56.5201C266.331 56.5093 266.455 56.5138 266.498 56.5318C266.542 56.5516 266.651 56.6398 266.826 56.7964C266.851 57.2158 266.818 57.6055 266.735 57.9664C266.65 58.3282 266.619 58.6774 266.637 59.0122C266.344 59.0248 266.029 59.0662 265.699 59.1256C265.365 59.1868 265.073 59.2444 264.823 59.3011C264.413 59.4073 264.088 59.4568 263.857 59.4487C263.626 59.4406 263.237 59.4505 262.696 59.482C262.192 59.509 261.662 59.5621 261.1 59.6332C260.535 59.7097 260.024 59.7781 259.568 59.8456C259.108 59.914 258.724 59.977 258.414 60.0364C258.1 60.0958 257.924 60.1264 257.882 60.13C257.426 60.2398 256.829 60.3982 256.083 60.6088C255.338 60.8185 254.575 61.0606 253.793 61.3342C253.012 61.6078 252.295 61.912 251.64 62.2423C250.986 62.5726 250.546 62.8903 250.308 63.1981C249.964 63.7633 249.62 64.2115 249.283 64.5454C248.944 64.8793 248.707 65.3437 248.574 65.9395C248.497 66.1105 248.471 66.3967 248.494 66.7927C248.515 67.1914 248.549 67.609 248.596 68.0473C248.64 68.4865 248.718 68.9122 248.824 69.3253C248.931 69.7384 249.054 70.0471 249.19 70.2478C249.545 70.6069 249.836 70.9687 250.066 71.3341C250.297 71.6977 250.483 71.9209 250.609 71.9965C250.909 72.1477 251.291 72.3358 251.742 72.5635C252.196 72.7894 252.66 72.9955 253.132 73.1782C253.215 73.2169 253.481 73.252 253.925 73.2907C254.368 73.3294 254.887 73.4158 255.481 73.5499C255.82 73.6156 256.036 73.6669 256.12 73.7029C256.208 73.7407 256.398 73.792 256.697 73.8586C256.91 73.9315 257.061 73.9882 257.146 74.0242C257.23 74.0602 257.383 74.1169 257.596 74.1871C257.85 74.2573 258.14 74.3131 258.455 74.3608C258.774 74.4049 258.955 74.4274 258.998 74.4238C259.331 74.4058 259.678 74.4391 260.039 74.5219C260.404 74.6092 260.751 74.6407 261.083 74.6227C261.677 74.7586 262.231 74.8531 262.738 74.908C263.246 74.9629 263.779 75.1654 264.346 75.5101C264.642 75.5794 264.963 75.6658 265.306 75.7738C265.646 75.88 265.927 75.9898 266.143 76.1032C266.272 76.1806 266.52 76.3039 266.885 76.4713C267.253 76.6405 267.632 76.8385 268.024 77.068C268.414 77.2993 268.783 77.5513 269.136 77.8258C269.486 78.1003 269.71 78.3397 269.808 78.544C270.259 79.192 270.592 79.8544 270.799 80.5348C271.004 81.2179 271.129 81.9145 271.168 82.6237C271.18 82.8343 271.163 83.1079 271.118 83.4454C271.074 83.7856 271.038 84.0592 271.007 84.2716L270.79 86.0464C270.721 86.2606 270.551 86.6485 270.29 87.2065C270.027 87.7681 269.856 88.0912 269.776 88.1803C269.74 88.2649 269.642 88.4098 269.485 88.6051C269.33 88.8022 269.164 88.9993 268.982 89.2027C268.807 89.4016 268.637 89.578 268.479 89.7337C268.319 89.8894 268.217 89.9893 268.181 90.0343C267.902 90.3007 267.471 90.6616 266.887 91.1134C266.303 91.5679 265.678 92.0314 265.012 92.5111C264.349 92.9872 263.698 93.4021 263.068 93.7513C262.437 94.1032 261.913 94.2904 261.493 94.3102C261.413 94.4011 261.313 94.4362 261.184 94.4236C261.058 94.4092 260.935 94.447 260.813 94.5388C260.354 94.564 259.917 94.6207 259.503 94.7071C259.088 94.7926 258.521 94.834 257.81 94.834C257.178 94.8259 256.583 94.87 256.021 94.9645C255.458 95.059 254.842 95.1031 254.17 95.0977C253.833 95.1166 253.334 95.1472 252.664 95.1841C251.995 95.221 251.282 95.2498 250.526 95.2723C249.772 95.2921 249.051 95.2984 248.357 95.2975C247.662 95.2939 247.103 95.2435 246.679 95.14C246.637 95.1436 246.499 95.1292 246.269 95.0995C246.034 95.0707 245.785 95.0536 245.511 95.0491C245.235 95.0419 244.974 95.0257 244.72 94.9978C244.465 94.9681 244.275 94.9591 244.15 94.9663C243.813 94.9447 243.32 94.9078 242.665 94.8619C242.011 94.8133 241.558 94.7548 241.3 94.6846C241.127 94.6108 240.944 94.5037 240.748 94.3705C240.552 94.2328 240.446 94.0609 240.434 93.8521C240.344 93.6892 240.208 93.3715 240.036 92.8981C239.861 92.4265 239.698 91.9324 239.544 91.4167C239.389 90.8992 239.268 90.4321 239.182 90.0172C239.096 89.6023 239.094 89.3917 239.181 89.3872C239.899 89.5159 240.631 89.6329 241.371 89.7364C242.112 89.8444 242.944 89.9542 243.879 90.0712C244.586 90.0298 245.305 90.064 246.026 90.1711C246.745 90.2791 247.565 90.3052 248.486 90.2539C248.819 90.2359 249.173 90.1828 249.546 90.1C249.92 90.0145 250.396 89.9173 250.976 89.8003C251.101 89.7508 251.226 89.722 251.351 89.7175C251.477 89.7076 251.579 89.6815 251.663 89.6347C252.291 89.6005 253.01 89.3602 253.824 88.9174C254.639 88.4737 255.273 88.1308 255.724 87.8968C255.763 87.8941 255.876 87.8257 256.056 87.6889C256.238 87.5521 256.426 87.3865 256.625 87.1858C256.824 86.9869 257.013 86.797 257.192 86.6188C257.371 86.4406 257.479 86.3083 257.517 86.2237L258.608 84.3355C258.679 84.1231 258.779 83.8747 258.913 83.5957C259.045 83.3149 259.143 83.0692 259.217 82.8541C259.434 82.2115 259.387 81.4177 259.082 80.4673C258.821 80.2756 258.609 80.0551 258.45 79.813C258.289 79.5691 258.074 79.309 257.809 79.03C257.578 78.7069 257.312 78.4585 257.012 78.2857C256.705 78.1147 256.381 77.9554 256.04 77.8042C255.441 77.6287 254.886 77.4595 254.377 77.2975C253.861 77.1391 253.438 77.0662 253.104 77.0869C252.508 76.9537 252.034 76.8727 251.674 76.8511C251.314 76.8295 250.962 76.7449 250.621 76.5964C250.065 76.4605 249.591 76.3795 249.19 76.3615C248.793 76.3417 248.416 76.2382 248.069 76.0456C247.527 76.0744 247.053 76.0303 246.648 75.9052C246.241 75.781 245.738 75.6514 245.144 75.5155C244.926 75.403 244.692 75.2914 244.434 75.1789C244.176 75.0664 243.98 74.9737 243.85 74.8963C243.236 74.4679 242.715 74.1196 242.283 73.8487C241.846 73.5814 241.381 73.1647 240.889 72.6049C240.44 72.0865 240.127 71.7337 239.949 71.5564C239.771 71.3773 239.544 71.0434 239.263 70.5547C239.167 70.3504 239.069 70.0732 238.965 69.7204C238.863 69.3703 238.777 69.0175 238.717 68.6638C238.655 68.3128 238.606 67.9771 238.568 67.6648C238.527 67.3525 238.507 67.1338 238.5 67.0096C238.468 66.4642 238.465 66.0241 238.489 65.6884C238.512 65.35 238.534 64.9909 238.552 64.6129C238.576 64.2745 238.661 63.9127 238.811 63.5266C238.953 63.1423 239.126 62.8156 239.32 62.5537C239.734 61.6915 240.225 61.066 240.793 60.6763C241.356 60.2902 242.003 59.8024 242.722 59.2138C242.883 59.0788 243.135 58.9078 243.482 58.7008C243.826 58.4938 244.193 58.294 244.583 58.1032C244.971 57.9133 245.349 57.745 245.719 57.5992C246.087 57.4534 246.398 57.331 246.644 57.232C246.977 57.214 247.27 57.1465 247.513 57.0268C247.759 56.9089 248.072 56.8378 248.446 56.8171C248.781 56.7982 249.042 56.7631 249.228 56.7091C249.413 56.6596 249.674 56.6227 250.011 56.6029C250.22 56.5921 250.438 56.5912 250.671 56.5984C250.895 56.6047 251.214 56.5138 251.625 56.3221Z" fill="#00B9D9"/>
<path d="M292.23 94.4839C292.149 94.4785 291.999 94.4902 291.788 94.5208C291.574 94.5469 291.363 94.5658 291.154 94.5748C290.943 94.582 290.764 94.5919 290.619 94.6027C290.471 94.6171 290.418 94.6243 290.458 94.6261L287.385 94.4371C286.722 94.3093 286.17 94.2247 285.732 94.177C285.294 94.1275 284.906 94.1131 284.567 94.1374C284.483 94.132 284.402 94.0951 284.326 94.0267C284.241 93.9574 284.184 93.8998 284.145 93.8575C284.125 93.4777 284.15 92.9143 284.219 92.1619C284.284 91.4104 284.332 90.8236 284.359 90.4042L284.41 89.5276C284.542 88.8211 284.598 88.1848 284.593 87.6178C284.585 87.049 284.603 86.4109 284.651 85.6981L284.734 84.3184C284.998 83.4112 285.11 82.4527 285.069 81.4393C285.027 80.4313 285.03 79.5079 285.082 78.6691L286.072 62.6689C286.097 62.2522 286.006 62.0353 285.795 62.0209C285.211 61.9444 284.752 61.894 284.418 61.8751C284.083 61.8562 283.621 61.8463 283.035 61.8508C282.781 61.8373 282.357 61.7473 281.758 61.5835C281.16 61.4224 280.754 61.3549 280.543 61.3828C280.329 61.4539 279.898 61.4269 279.257 61.3045C278.615 61.1803 278.188 61.1119 277.98 61.0993C277.771 61.084 277.585 61.0651 277.416 61.0309C277.249 61.0012 277.086 60.9184 276.928 60.7825L277.17 56.8891C277.341 56.8189 277.595 56.7919 277.929 56.8135C278.264 56.8324 278.597 56.8522 278.931 56.8747C279.351 56.9017 279.727 56.9224 280.062 56.9449C280.395 56.9647 280.715 56.9629 281.007 56.9413C281.092 56.944 281.384 56.9836 281.883 57.0565C282.383 57.1303 282.796 57.1987 283.131 57.2581C283.386 57.1906 283.639 57.1645 283.891 57.1807C284.52 57.1771 285.105 57.2158 285.65 57.2905C286.021 57.3553 286.292 57.3724 286.464 57.34C286.633 57.3103 286.886 57.3049 287.221 57.3247L288.225 57.3877L289.912 57.6172C290.329 57.6424 290.748 57.6577 291.168 57.6631C291.589 57.6685 292.005 57.7036 292.422 57.7711C293.375 57.9151 294.306 58.0033 295.208 58.0384C296.109 58.0735 296.852 58.0681 297.443 58.0168C297.736 58.0375 298.257 58.1113 299.006 58.2418C299.752 58.3705 300.481 58.4803 301.189 58.5667C301.647 58.636 302.023 58.6576 302.322 58.6333C302.616 58.6108 302.866 58.627 303.072 58.6801L302.893 61.5673C302.882 61.7347 302.9 61.8409 302.939 61.885C302.977 61.9291 302.945 62.1163 302.841 62.443C302.787 62.6095 302.614 62.6941 302.32 62.6977C302.024 62.6995 301.794 62.6932 301.629 62.6842C300.528 62.7859 299.534 62.7859 298.635 62.6887C297.738 62.5933 296.871 62.5159 296.036 62.4664C295.703 62.4439 295.439 62.4277 295.254 62.416C295.065 62.407 294.844 62.4133 294.591 62.4403L294.502 63.883C294.478 64.2187 294.438 64.7218 294.378 65.3887C294.312 66.0547 294.272 66.5785 294.246 66.9547C294.238 67.1221 294.228 67.2472 294.226 67.3309C294.22 67.4146 294.201 67.5298 294.173 67.6747C294.141 67.8205 294.095 68.0284 294.039 68.2939C293.98 68.5657 293.874 68.9455 293.715 69.4396C293.672 70.1506 293.635 70.7572 293.603 71.2603C293.575 71.7625 293.556 72.2233 293.55 72.6436C293.546 73.0612 293.529 73.4716 293.505 73.8667C293.479 74.2672 293.454 74.7361 293.42 75.2797L293.381 75.9079C293.168 76.6108 293.085 77.3164 293.123 78.0337C293.165 78.7501 293.163 79.4656 293.117 80.1757L292.23 94.4839Z" fill="#00B9D9"/>
<path d="M335.791 71.2873C335.818 72.3142 335.87 73.3798 335.95 74.4769C336.031 75.5794 335.976 76.6648 335.787 77.7376C335.86 78.2614 335.85 78.8671 335.748 79.552C335.648 80.236 335.554 80.8057 335.475 81.2611C335.378 81.7957 335.285 82.2583 335.193 82.648C335.106 83.0359 334.924 83.5039 334.657 84.052C334.569 84.547 334.446 85.1195 334.284 85.7729C334.123 86.4263 333.879 86.977 333.542 87.4288C333.366 87.697 333.237 88.0552 333.155 88.5088C333.076 88.9642 332.89 89.3998 332.602 89.8165L331.551 91.4149C331.134 92.0665 330.693 92.7001 330.224 93.3166C329.748 93.9349 329.307 94.4425 328.894 94.8376C328.783 94.987 328.592 95.1652 328.321 95.3722C328.05 95.5801 327.764 95.8042 327.464 96.0481C327.165 96.2938 326.859 96.5152 326.546 96.715C326.234 96.9166 325.981 97.0822 325.787 97.219C325.349 97.5241 324.918 97.7977 324.491 98.0398C324.061 98.2846 323.586 98.4628 323.05 98.5807C322.871 98.6356 322.693 98.677 322.518 98.7103C322.344 98.7436 322.149 98.7616 321.934 98.7643C321.382 98.7508 320.873 98.7355 320.409 98.7175C319.944 98.6968 319.481 98.6689 319.021 98.6275C318.73 98.5762 318.348 98.5087 317.877 98.4232C317.399 98.3386 316.919 98.2423 316.427 98.1325C315.934 98.0227 315.487 97.9102 315.082 97.7959C314.674 97.6816 314.416 97.5907 314.3 97.5295C313.609 97.1065 312.967 96.6934 312.379 96.2902C311.793 95.887 311.282 95.3497 310.849 94.6765L308.636 92.0458C307.86 91.1395 307.293 90.1549 306.93 89.0902C306.567 88.0246 306.318 86.9257 306.177 85.7926C306.061 85.2607 306.016 84.7855 306.051 84.367C306.082 83.944 306.026 83.5525 305.876 83.1826C305.884 81.9496 305.905 80.8255 305.937 79.8085C305.97 78.7933 306.105 77.7547 306.338 76.6873C306.465 76.1986 306.588 75.6478 306.698 75.0277C306.807 74.4076 306.956 73.8181 307.14 73.2556C307.205 73.1368 307.322 72.8398 307.494 72.3601C307.666 71.8804 307.842 71.3683 308.024 70.8247C308.206 70.2838 308.384 69.7618 308.559 69.2596C308.734 68.7601 308.85 68.4514 308.916 68.3344C309.499 67.2031 310.074 66.1897 310.642 65.2888C311.206 64.3906 311.885 63.6274 312.681 63.0037L314.829 61.3441C315.072 61.1749 315.363 61.0246 315.705 60.8941C316.05 60.7645 316.357 60.6376 316.637 60.5188L318.138 59.9572C318.605 59.743 319.248 59.5909 320.075 59.5045C320.897 59.4199 321.586 59.3812 322.138 59.3956C322.688 59.41 323.287 59.4523 323.934 59.5243C324.58 59.5981 325.235 59.6917 325.896 59.8123C326.472 59.914 326.946 60.0634 327.316 60.256C327.687 60.4513 328.103 60.6754 328.57 60.9274C328.726 60.9976 328.961 61.1164 329.273 61.2775C329.584 61.4413 329.917 61.6501 330.279 61.9039C330.639 62.1604 330.996 62.4592 331.366 62.8012C331.728 63.1423 332.028 63.4852 332.266 63.8263C332.459 64.1593 332.77 64.522 333.19 64.9153C333.606 65.3104 333.888 65.7109 334.027 66.1204C334.08 66.2995 334.165 66.4849 334.279 66.6739C334.396 66.8674 334.5 67.0555 334.593 67.2418C334.836 67.7971 335.115 68.4856 335.437 69.31C335.759 70.1335 335.877 70.7932 335.791 71.2873ZM320.363 82.9C320.528 82.9306 320.638 82.9099 320.696 82.8343C320.75 82.7578 320.885 82.7182 321.097 82.7137C321.395 82.7236 321.628 82.6273 321.792 82.4212C321.952 82.2178 322.158 82.0297 322.4 81.8605C322.727 80.9839 322.969 80.1757 323.122 79.4359C323.273 78.697 323.431 77.8735 323.593 76.9645C323.656 76.6351 323.628 76.2994 323.519 75.9601C323.409 75.6208 323.183 75.3373 322.841 75.106C322.507 74.8333 322.236 74.6758 322.031 74.6416C321.825 74.6047 321.54 74.6587 321.17 74.8072C321.086 74.7919 321 74.7991 320.915 74.8243C320.82 74.8495 320.733 74.8774 320.641 74.9044L320.372 74.9818C320.102 75.3175 319.852 75.6343 319.627 75.9349C319.402 76.2355 319.261 76.5514 319.203 76.8817L318.653 79.9741C318.615 80.6509 318.688 81.1945 318.871 81.6112C319.049 82.0252 319.342 82.4194 319.745 82.7884L320.363 82.9Z" fill="#00B9D9"/>
<path d="M341.292 85.0628C341.352 84.6461 341.461 84.2627 341.614 83.9117C341.767 83.5616 341.891 83.2034 341.985 82.838C342.15 82.1864 342.296 81.5654 342.423 80.9705C342.549 80.3783 342.697 79.7546 342.863 79.1048L343.584 76.2383C343.638 76.0376 343.682 75.8198 343.719 75.5912C343.753 75.3635 343.776 75.1412 343.789 74.9279L345.221 69.2597C345.385 68.7827 345.548 68.186 345.706 67.4696C345.868 66.7523 345.972 66.2933 346.023 66.0908C346.055 65.9666 346.064 65.8406 346.057 65.7083C346.048 65.5769 346.07 65.4761 346.132 65.4041C346.335 65.4554 346.553 65.4887 346.786 65.504C347.022 65.5211 347.32 65.5742 347.688 65.666C348.022 65.7083 348.356 65.7506 348.696 65.792C349.028 65.8352 349.4 65.9063 349.803 66.0098L352.548 66.7019C352.873 66.7847 353.155 66.8675 353.394 66.9485C353.635 67.0313 353.947 67.1645 354.333 67.3481C354.364 67.3985 354.397 67.4291 354.438 67.439C354.466 67.4894 354.585 67.5407 354.788 67.592C355.053 67.574 355.413 67.6433 355.869 67.8008C356.327 67.9601 356.794 68.123 357.27 68.285C357.587 68.4074 357.869 68.5667 358.122 68.762C358.377 68.9537 358.605 69.0761 358.808 69.1292C358.889 69.149 359.074 69.2705 359.362 69.4955C359.653 69.7196 359.958 69.9689 360.278 70.247C360.596 70.5224 360.89 70.7672 361.157 70.9877C361.427 71.2073 361.618 71.3522 361.73 71.4242C362.206 71.7608 362.638 72.1415 363.032 72.5636C363.42 72.9875 363.692 73.4114 363.843 73.838C364.149 74.1764 364.332 74.5589 364.397 74.9855C364.463 75.4148 364.575 75.8207 364.738 76.2059C364.816 76.4003 364.846 76.6226 364.824 76.8782C364.806 77.1311 364.851 77.3804 364.962 77.6243C365.092 77.96 365.139 78.4145 365.103 78.9887C365.066 79.5629 364.98 80.1578 364.848 80.7734C364.712 81.3872 364.546 82.0028 364.346 82.6247C364.145 83.2439 363.963 83.792 363.8 84.269C363.615 84.6551 363.438 85.0115 363.27 85.3364C363.101 85.6595 362.918 86.0357 362.725 86.4623C362.633 86.6549 362.486 86.8565 362.281 87.0635C362.078 87.2705 361.911 87.4667 361.776 87.6503C361.255 88.3406 360.54 88.9571 359.62 89.5034L358.917 89.9759C358.735 90.0155 358.569 90.0803 358.416 90.173C358.262 90.263 358.086 90.3494 357.894 90.4295C357.641 90.5807 357.366 90.6851 357.071 90.7409C356.776 90.7967 356.501 90.9011 356.245 91.0505C355.677 90.9065 355.176 90.8885 354.737 90.9947C354.301 91.1 353.86 91.0082 353.412 90.7247C353.007 90.6203 352.627 90.5789 352.278 90.5996C351.925 90.6194 351.588 90.587 351.263 90.5042L350.899 90.4097C350.846 90.6131 350.982 91.0163 351.308 91.6166C351.63 92.2178 351.841 92.747 351.944 93.2033C352.184 93.6137 352.406 93.98 352.602 94.3094C352.799 94.6415 353.016 95.0303 353.249 95.4785C353.652 96.0995 353.94 96.5936 354.104 96.9626C354.271 97.3271 354.556 97.8203 354.963 98.4431C355.158 98.7086 355.347 99.1784 355.546 99.8561C355.743 100.532 355.937 101.003 356.13 101.266C356.281 101.695 356.374 101.976 356.401 102.113C356.433 102.252 356.507 102.424 356.629 102.626C356.84 103.155 357.003 103.619 357.12 104.015C357.237 104.41 357.376 104.803 357.537 105.191C357.239 105.504 356.863 105.808 356.398 106.101C355.936 106.396 355.376 106.632 354.726 106.816C354.677 106.672 354.582 106.53 354.446 106.386C354.307 106.242 354.22 106.08 354.18 105.899C354.118 105.796 353.905 105.482 353.54 104.957C353.177 104.434 352.88 103.947 352.646 103.499C352.513 103.164 352.273 102.702 351.924 102.119C351.576 101.533 351.178 100.923 350.732 100.293C350.286 99.6599 349.903 99.0371 349.586 98.4152C349.268 97.7915 349.022 97.3082 348.852 96.9635C348.759 96.8105 348.606 96.5666 348.385 96.2309C348.169 95.8961 347.931 95.555 347.677 95.2076C347.416 94.862 347.177 94.5209 346.961 94.1834C346.743 93.8468 346.586 93.6011 346.496 93.4499C346.392 93.5093 346.328 93.5678 346.29 93.6236C346.255 93.6794 346.205 93.7433 346.145 93.8144C346.085 93.8855 346.043 93.962 346.023 94.0403C345.814 94.8548 345.594 95.6099 345.351 96.3056C345.113 97.0004 344.905 97.6925 344.73 98.3846C344.637 98.75 344.53 99.1253 344.412 99.5033C344.295 99.8858 344.175 100.317 344.052 100.806L343.512 102.939C343.431 102.919 343.286 102.893 343.079 102.862C342.869 102.831 342.639 102.806 342.386 102.786C341.915 102.753 341.474 102.673 341.05 102.544C340.629 102.417 340.216 102.3 339.807 102.198C339.28 102.064 338.844 101.954 338.499 101.867C338.151 101.779 337.839 101.613 337.553 101.368C337.35 101.317 337.228 101.285 337.187 101.275C337.147 101.265 337.05 101.135 336.897 100.879L338.176 96.0797L338.498 95.3183L338.872 93.3365L340.564 87.1499C340.781 86.6414 340.907 86.2643 340.949 86.015C340.995 85.7639 341.106 85.4471 341.292 85.0628ZM353.7 80.6141C353.903 80.1452 354.072 79.6592 354.199 79.1507C354.328 78.6431 354.424 78.1796 354.486 77.7647C354.547 77.5217 354.507 77.3372 354.365 77.2148C354.297 76.9826 354.219 76.8116 354.137 76.7036C354.058 76.5974 353.968 76.4867 353.865 76.3742C353.642 76.0583 353.385 75.7901 353.096 75.5633C352.806 75.341 352.511 75.1466 352.206 74.9828C352.086 74.9504 351.963 75.008 351.84 75.1484C351.778 75.2222 351.74 75.2762 351.733 75.3167L350.161 81.5357L351.199 81.7949C351.451 81.6464 351.683 81.5834 351.891 81.6167C352.099 81.6473 352.311 81.5825 352.524 81.4187C352.819 81.2792 353.052 81.173 353.22 81.1109C353.386 81.0416 353.547 80.8787 353.7 80.6141Z" fill="#00B9D9"/>
<path d="M385.08 102.33C385.031 101.973 384.987 101.591 384.94 101.187C384.895 100.785 384.839 100.328 384.779 99.8191C384.635 98.8408 384.542 97.9237 384.5 97.0687C384.454 96.2164 384.386 95.6458 384.304 95.3632L383.694 92.7586C383.662 92.5516 383.637 92.2807 383.629 91.9414C383.623 91.6048 383.609 91.36 383.593 91.2079C383.545 90.8533 383.515 90.4906 383.493 90.1234C383.479 89.7598 383.435 89.416 383.367 89.0938C383.305 88.6798 383.232 88.1677 383.153 87.5566C383.076 86.9446 383.018 86.6287 382.98 86.6098L381.708 89.1352L378.924 93.4237C378.827 93.6091 378.605 94.0015 378.263 94.6018C377.917 95.2021 377.541 95.8456 377.13 96.5287C376.715 97.21 376.339 97.8544 375.997 98.4538C375.649 99.0541 375.43 99.4465 375.333 99.6319C374.882 100.388 374.461 101.042 374.074 101.596C373.682 102.147 373.299 102.823 372.923 103.622C372.727 103.991 372.516 104.318 372.293 104.601C372.07 104.886 371.877 105.226 371.719 105.613C371.62 105.799 371.526 105.974 371.436 106.14C371.349 106.305 371.238 106.471 371.101 106.638C370.862 107.173 370.58 107.702 370.257 108.22C369.936 108.735 369.636 109.252 369.362 109.771C368.819 109.718 368.359 109.617 367.989 109.469C367.619 109.318 367.174 109.105 366.656 108.828C366.491 108.785 366.281 108.71 366.031 108.6C365.779 108.493 365.538 108.386 365.305 108.288C365.078 108.187 364.88 108.108 364.72 108.048C364.565 107.988 364.502 107.967 364.541 107.986C364.356 107.889 364.131 107.792 363.873 107.702C363.611 107.61 363.333 107.487 363.037 107.329C362.89 107.25 362.745 107.163 362.609 107.065C362.47 106.967 362.376 106.787 362.327 106.523L363.464 104.921L363.641 104.59C363.901 104.014 364.155 103.449 364.405 102.893C364.651 102.337 364.92 101.876 365.213 101.507C365.366 101.302 365.552 101.022 365.768 100.662C365.984 100.303 366.2 99.9208 366.417 99.5113C366.632 99.1054 366.843 98.7067 367.051 98.3197C367.259 97.9282 367.422 97.5781 367.544 97.2604C367.784 96.6313 368.009 96.0967 368.219 95.6638C368.425 95.2264 368.787 94.5298 369.299 93.5668C369.748 92.809 370.094 92.2087 370.33 91.7641C370.566 91.3204 370.873 90.7012 371.248 89.9029L371.515 89.4034C371.792 88.8868 372.009 88.4098 372.172 87.9724C372.332 87.5359 372.509 87.1813 372.707 86.9014C373.268 86.2021 373.723 85.4614 374.072 84.6739C374.42 83.8855 374.857 83.0845 375.386 82.2745C375.757 81.6643 376.093 81.0604 376.387 80.4574C376.686 79.8562 377.002 79.2424 377.337 78.6115C377.67 77.9851 378.036 77.3704 378.424 76.7692C378.814 76.1707 379.178 75.5587 379.513 74.9269C379.668 74.6308 379.794 74.4706 379.878 74.4436C379.964 74.4193 380.153 74.4823 380.449 74.6434L386.164 77.6854C386.25 77.9698 386.309 78.3937 386.343 78.9571C386.374 79.5205 386.417 79.9813 386.462 80.3368C386.561 80.866 386.619 81.4447 386.641 82.0729C386.664 82.7002 386.687 83.26 386.713 83.7469C386.671 84.5353 386.732 85.1815 386.888 85.6918C387.042 86.203 387.082 86.7934 387.012 87.4693C387.096 87.7501 387.139 88.0471 387.14 88.3585C387.143 88.6672 387.178 88.9354 387.248 89.1613C387.273 89.5564 387.32 90.055 387.378 90.6553C387.437 91.2574 387.535 91.7848 387.676 92.2411C387.819 93.1231 387.93 93.9187 388.008 94.6243C388.081 95.3326 388.221 96.1165 388.424 96.985C388.502 97.5493 388.565 98.0578 388.61 98.5069C388.656 98.9587 388.696 99.4573 388.737 100.003C388.857 100.491 388.977 101.044 389.104 101.657C389.231 102.27 389.376 102.953 389.545 103.707C389.639 103.71 389.849 103.644 390.179 103.512C390.512 103.38 390.782 103.253 390.992 103.124C391.505 102.969 392.073 102.726 392.7 102.397C393.328 102.065 393.914 101.786 394.465 101.557L395.61 100.742C395.761 100.634 395.93 100.545 396.11 100.474C396.29 100.403 396.446 100.33 396.58 100.262L399.289 98.7832C399.636 98.4925 400.185 98.1901 400.946 97.8841C401.703 97.5754 402.511 97.1506 403.368 96.6097L403.822 96.4252C404.528 95.9941 405.182 95.5693 405.785 95.1535C406.385 94.7377 406.999 94.294 407.632 93.8233C408.108 93.4624 408.543 93.205 408.93 93.0547C409.317 92.9062 409.77 92.6614 410.288 92.3158C410.592 92.098 410.778 91.9486 410.847 91.8676C410.915 91.7848 411.063 91.6606 411.294 91.4986L416.342 94.1887C416.891 94.672 417.296 94.9816 417.556 95.1202C417.811 95.2579 417.999 95.356 418.109 95.4136C418.295 95.5126 418.465 95.6161 418.62 95.7232C418.779 95.833 419.006 95.9617 419.3 96.1228L418.088 98.3971C417.605 98.9488 417.227 99.4564 416.952 99.9289C416.676 100.399 416.412 100.874 416.157 101.358L413.172 106.961C412.815 107.628 412.496 108.274 412.205 108.905C411.917 109.536 411.589 110.202 411.211 110.904C411.151 111.109 411.067 111.314 410.96 111.516C410.849 111.72 410.736 111.933 410.618 112.156C410.437 112.582 410.291 112.884 410.174 113.057C410.055 113.234 409.907 113.533 409.729 113.96L409.344 114.682C409.188 114.883 408.949 115.243 408.628 115.759C408.305 116.277 407.97 116.813 407.63 117.366C407.288 117.921 406.962 118.46 406.661 118.986C406.353 119.514 406.144 119.886 406.023 120.11C405.867 120.406 405.688 120.784 405.49 121.248C405.29 121.711 405.11 122.091 404.953 122.388C404.561 123.127 404.144 123.891 403.698 124.674C403.258 125.46 402.736 126.194 402.14 126.87L401.459 128.146C401.214 128.253 400.963 128.251 400.713 128.141C400.463 128.031 400.246 127.929 400.061 127.83C399.767 127.578 399.435 127.377 399.063 127.228C398.691 127.077 398.431 126.96 398.286 126.885L394.013 124.608C394.213 124.049 394.435 123.504 394.673 122.964C394.913 122.428 395.159 121.917 395.417 121.438C395.533 121.215 395.712 120.905 395.947 120.508C396.179 120.111 396.422 119.684 396.668 119.22C396.916 118.758 397.145 118.321 397.361 117.915C397.578 117.509 397.726 117.184 397.809 116.944C397.946 116.684 398.175 116.297 398.5 115.779C398.821 115.264 399.053 114.874 399.192 114.616L400.141 112.7C400.337 112.329 400.493 112.02 400.601 111.769C400.71 111.519 400.815 111.302 400.915 111.117L401.364 110.003C401.402 109.93 401.467 109.833 401.553 109.712C401.641 109.593 401.705 109.497 401.744 109.424C402.048 108.493 402.482 107.655 403.047 106.911C403.607 106.165 404.059 105.386 404.402 104.568C404.575 104.331 404.722 104.1 404.838 103.879C404.958 103.656 405.074 103.433 405.197 103.211L406.619 100.266L406.945 99.6571L406.783 99.4285C406.726 99.4447 406.687 99.4726 406.666 99.5086C405.95 99.6949 405.272 99.9424 404.637 100.243C403.999 100.546 403.332 100.914 402.626 101.346L399.458 103.15C399.098 103.384 398.672 103.645 398.185 103.934C397.7 104.221 397.211 104.517 396.714 104.822C396.219 105.126 395.75 105.409 395.302 105.671C394.854 105.932 394.452 106.132 394.092 106.274C393.899 106.363 393.625 106.5 393.264 106.687C392.903 106.874 392.508 107.079 392.078 107.304C391.652 107.529 391.221 107.761 390.782 108.002C390.345 108.243 389.935 108.455 389.556 108.63L389.158 108.845C388.932 108.821 388.668 108.716 388.367 108.529C388.061 108.344 387.816 108.201 387.632 108.104C387.299 107.926 386.959 107.757 386.616 107.6C386.273 107.44 385.936 107.27 385.603 107.094C385.465 106.642 385.384 106.075 385.365 105.403C385.343 104.726 385.302 104.182 385.239 103.766L385.08 102.33Z" fill="#00B9D9"/>
<path d="M205.327 266.226C197.841 264.854 190.066 265.121 182.749 267.248C183.005 266.07 183.192 264.895 183.321 263.723C182.814 263.735 182.308 263.755 181.798 263.752C155.114 263.589 133.54 241.747 133.703 215.063C133.799 199.514 141.265 185.709 152.754 176.92C153.239 173.719 153.539 170.505 153.546 167.279C137.263 176.982 126.284 194.72 126.159 215.016C125.969 245.86 150.907 271.107 181.751 271.296C190.159 271.347 198.145 269.52 205.327 266.226Z" fill="#F9BB58"/>
<path d="M289.601 315.219C289.936 315.066 289.733 313.588 288.386 311.655C287.076 309.746 284.446 307.48 280.855 306.576C277.263 305.68 273.874 306.438 271.819 307.504C269.719 308.574 268.843 309.782 269.067 310.074C269.312 310.425 270.553 309.884 272.529 309.432C274.488 308.967 277.275 308.678 280.148 309.394C283.02 310.117 285.341 311.686 286.85 313.02C288.38 314.35 289.22 315.412 289.601 315.219Z" fill="#F993EF"/>
<path d="M304.99 308.837C305.143 308.504 304.264 307.646 302.419 307.09C300.597 306.527 297.809 306.465 295.046 307.52C292.286 308.581 290.253 310.489 289.275 312.126C288.274 313.773 288.194 314.998 288.529 315.144C289.274 315.487 291.498 311.896 296.086 310.233C300.611 308.404 304.666 309.589 304.99 308.837Z" fill="#F993EF"/>
<path d="M200.307 284.622C200.543 284.316 200.205 283.56 199.241 282.756C198.29 281.954 196.68 281.176 194.776 280.949C192.872 280.725 191.125 281.103 190.012 281.661C188.886 282.218 188.382 282.873 188.538 283.225C188.902 283.965 191.447 283.435 194.433 283.833C197.429 284.145 199.78 285.257 200.307 284.622Z" fill="#F993EF"/>
<path d="M160.666 245.879C161.03 245.745 161.008 244.474 160.415 242.517C159.813 240.617 158.567 237.772 155.705 235.761C152.677 233.725 149.138 234.044 147.172 235.235C145.118 236.484 144.919 238.12 145.243 238.221C145.624 238.444 146.419 237.519 148.008 237.111C149.542 236.679 152.064 236.794 154.063 238.158C156.159 239.603 157.529 241.783 158.549 243.374C159.563 244.982 160.279 246.023 160.666 245.879Z" fill="#F993EF"/>
<path d="M176.553 244.101C176.877 243.938 176.695 242.622 175.281 241.126C173.928 239.662 171.143 238.168 167.85 238.625C164.564 239.122 162.317 241.345 161.436 243.132C160.506 244.968 160.703 246.282 161.06 246.345C161.475 246.449 162.003 245.456 163.123 244.303C164.211 243.15 166.041 241.829 168.266 241.499C170.495 241.183 172.624 241.93 173.995 242.727C175.397 243.517 176.184 244.318 176.553 244.101Z" fill="#F993EF"/>
<path d="M243.657 329.495C243.432 329.133 242.374 329.464 240.791 329.544C239.233 329.648 237.029 329.392 235.356 328.083C233.739 326.804 233.083 324.675 233.064 323.219C233.003 321.723 233.465 320.73 233.127 320.46C232.886 320.206 231.619 320.873 231.031 322.928C230.449 324.879 230.873 328.192 233.561 330.367C236.243 332.43 239.434 332.246 241.232 331.55C243.119 330.847 243.867 329.793 243.657 329.495Z" fill="#F993EF"/>
<path d="M368.188 270.967C367.744 270.906 367.344 272.578 365.875 274.653C364.467 276.708 361.711 279.183 358.083 279.811C354.448 280.403 351.035 278.967 349.033 277.485C346.966 276.005 346.041 274.556 345.642 274.758C345.32 274.873 345.6 276.808 347.674 279.024C349.65 281.191 353.756 283.444 358.565 282.675C363.361 281.829 366.505 278.357 367.663 275.663C368.898 272.891 368.53 270.971 368.188 270.967Z" fill="#F993EF"/>
<path d="M388.434 271.05C388.022 270.903 387.324 272.188 385.756 273.669C384.232 275.148 381.637 276.799 378.537 277.02C375.436 277.22 372.641 275.937 370.931 274.677C369.178 273.422 368.311 272.244 367.923 272.445C367.597 272.58 367.828 274.232 369.543 276.191C371.188 278.111 374.578 280.178 378.734 279.919C382.888 279.614 385.967 277.107 387.336 274.982C388.771 272.808 388.776 271.14 388.434 271.05Z" fill="#F993EF"/>
<path d="M263.882 259.277C264.068 258.937 263.375 258.09 261.875 257.223C260.399 256.373 258 255.51 255.189 255.762C252.348 256.024 250.052 257.519 248.949 258.989C247.809 260.474 247.78 261.691 248.122 261.826C248.506 262.005 249.177 261.252 250.373 260.468C251.551 259.673 253.357 258.854 255.461 258.655C259.757 258.306 263.496 260.073 263.882 259.277Z" fill="#F993EF"/>
<path d="M223.177 146.513C222.943 146.145 221.692 146.665 219.728 146.761C217.801 146.887 215.01 146.446 212.861 144.665C210.726 142.866 209.796 140.199 209.579 138.279C209.325 136.329 209.614 135.006 209.211 134.84C208.898 134.676 207.821 135.835 207.524 138.27C207.209 140.616 207.978 144.329 210.998 146.893C214.057 149.409 217.847 149.506 220.101 148.78C222.445 148.057 223.394 146.792 223.177 146.513Z" fill="#F993EF"/>
<path d="M243.023 151.521C242.716 151.222 241.534 152.068 239.56 152.991C237.615 153.916 234.719 154.859 231.679 154.372C228.696 153.875 226.363 151.914 225.218 150.239C224.016 148.549 223.784 147.12 223.341 147.132C223.001 147.088 222.42 148.737 223.406 151.206C224.335 153.602 227.102 156.543 231.212 157.239C235.266 157.872 238.74 156.255 240.643 154.737C242.61 153.186 243.295 151.766 243.023 151.521Z" fill="#F993EF"/>
<path d="M184.01 178.534C184.243 178.244 183.561 177.171 181.898 176.05C180.255 174.93 177.574 173.902 174.493 173.804C171.413 173.715 168.674 174.578 166.967 175.597C165.239 176.616 164.493 177.646 164.708 177.949C165.182 178.637 169.142 176.474 174.405 176.707C179.674 176.793 183.495 179.192 184.01 178.534Z" fill="#F993EF"/>
<path d="M296.049 142.437C295.756 142.109 294.558 142.891 292.521 143.308C290.532 143.751 287.514 143.69 285.058 142.051C282.618 140.388 281.429 137.612 281.095 135.603C280.717 133.558 280.993 132.154 280.58 132.005C280.267 131.851 279.187 133.134 279.045 135.719C278.876 138.205 279.98 142.081 283.434 144.459C286.933 146.771 290.942 146.342 293.183 145.253C295.526 144.151 296.31 142.67 296.049 142.437Z" fill="#F993EF"/>
<path d="M319.336 153.272C319.012 152.96 317.643 154.156 315.095 155.058C312.612 155.98 308.706 156.451 305.131 154.805C301.573 153.125 299.422 149.831 298.532 147.336C297.585 144.805 297.622 142.988 297.174 142.94C296.843 142.862 296.005 144.73 296.548 147.869C297.036 150.913 299.304 155.252 303.904 157.438C308.536 159.557 313.317 158.505 315.962 156.921C318.717 155.318 319.609 153.475 319.336 153.272Z" fill="#F993EF"/>
<path d="M340.739 148.658C340.312 148.546 339.706 150.057 338.153 151.916C336.653 153.761 333.949 155.961 330.513 156.422C327.103 156.848 323.957 155.303 322.229 153.761C320.429 152.214 319.775 150.718 319.347 150.855C319.014 150.907 318.949 152.824 320.726 155.161C322.41 157.433 326.238 159.864 330.886 159.303C335.485 158.668 338.59 155.51 339.86 153.059C341.204 150.535 341.084 148.716 340.739 148.658Z" fill="#F993EF"/>
<path d="M352.674 214.729C352.975 214.544 352.415 212.83 350.289 210.959C348.232 209.114 344.371 207.302 339.912 207.848C335.458 208.428 332.17 211.142 330.636 213.441C329.041 215.781 328.925 217.581 329.263 217.686C329.67 217.849 330.464 216.439 332.209 214.762C333.913 213.088 336.772 211.182 340.277 210.73C343.783 210.297 347.027 211.431 349.093 212.63C351.201 213.821 352.32 214.989 352.674 214.729Z" fill="#F993EF"/>
<path d="M375.275 213.019C375.552 212.784 374.784 211.191 372.618 209.376C370.519 207.604 366.703 205.618 362.119 206.09C357.47 206.63 354.181 209.769 352.991 212.411C351.733 215.132 352.291 217.024 352.623 216.984C353.075 217.013 353.326 215.372 354.762 213.452C356.13 211.552 358.933 209.376 362.437 208.977C366.003 208.597 369.289 209.886 371.464 211.075C373.672 212.271 374.957 213.313 375.275 213.019Z" fill="#F993EF"/>
<path d="M339.806 188.819C340.024 188.516 339.397 187.541 337.772 186.756C336.188 185.973 333.522 185.538 330.836 186.555C328.154 187.582 326.453 189.681 325.792 191.319C325.1 192.986 325.28 194.132 325.645 194.213C326.395 194.443 327.922 190.752 331.87 189.269C335.803 187.749 339.4 189.49 339.806 188.819Z" fill="#F993EF"/>
<path d="M381.062 182.396C381.417 182.413 381.888 181.138 381.131 179.215C380.438 177.376 378.217 174.951 374.796 174.747C371.37 174.642 368.94 176.858 368.085 178.628C367.159 180.474 367.513 181.787 367.869 181.802C368.295 181.865 368.712 180.864 369.776 179.796C370.789 178.726 372.641 177.567 374.666 177.649C376.69 177.748 378.431 179.07 379.344 180.227C380.307 181.387 380.632 182.42 381.062 182.396Z" fill="#F993EF"/>
<path d="M323.18 338.437C323.37 338.126 322.468 337.075 320.4 336.45C318.391 335.821 315.121 335.835 312.228 337.72C309.349 339.626 308.038 342.622 307.818 344.715C307.57 346.862 308.177 348.106 308.538 348.055C308.965 348.02 309.137 346.83 309.811 345.213C310.458 343.606 311.739 341.523 313.823 340.147C315.913 338.781 318.334 338.432 320.065 338.476C321.817 338.5 322.978 338.814 323.18 338.437Z" fill="#F993EF"/>
<path d="M393.012 237.004C393.234 236.706 392.518 235.64 390.714 234.742C388.955 233.847 386.012 233.284 382.977 234.26C379.945 235.246 377.89 237.426 376.987 239.182C376.051 240.966 376.095 242.25 376.45 242.362C376.849 242.504 377.489 241.564 378.658 240.378C379.809 239.189 381.596 237.764 383.87 237.024C386.147 236.292 388.431 236.4 390.06 236.689C391.702 236.966 392.772 237.354 393.012 237.004Z" fill="#F993EF"/>
<path d="M138.052 201.121C137.828 200.774 136.511 201.271 134.55 202.101C132.59 202.901 129.933 204.006 127.036 203.862C124.114 203.782 122.044 202.2 121.116 200.558C120.143 198.957 120.262 197.602 119.843 197.499C119.531 197.333 118.483 198.824 119.223 201.356C119.593 202.569 120.408 203.928 121.782 204.993C123.163 206.064 124.998 206.672 126.896 206.763C130.755 206.925 133.776 205.179 135.562 203.886C137.383 202.53 138.263 201.447 138.052 201.121Z" fill="#F993EF"/>
</svg>
