<svg width="512" height="512" viewBox="0 0 512 512" fill="none" xmlns="http://www.w3.org/2000/svg">
<path d="M284.034 256.464C284.034 362.224 228.06 447.947 159.017 447.947C89.9746 447.947 34 362.224 34 256.464C34 230.982 37.2489 206.661 43.1477 184.445C61.7333 114.386 106.618 65 159.017 65C211.416 65 256.301 114.386 274.887 184.445C280.786 206.679 284.034 231 284.034 256.464Z" fill="white"/>
<path d="M272.67 256.465C272.67 352.611 221.784 430.54 159.018 430.54C96.2517 430.54 45.3657 352.611 45.3657 256.465C45.3657 233.299 48.3193 211.189 53.6818 190.993C70.5778 127.303 111.382 82.4067 159.018 82.4067C206.653 82.4067 247.458 127.303 264.354 190.993C269.716 211.206 272.67 233.316 272.67 256.465Z" fill="#F4C789"/>
<path d="M146.659 136.692C108.494 136.692 76.1873 175.104 65.3138 228.052L141.808 251.334L61.585 275.754C64.4395 343.932 101.432 397.887 146.675 397.887C191.918 397.887 231.947 339.411 231.947 267.289C231.947 195.168 193.766 136.692 146.675 136.692H146.659Z" fill="#0C0C0C"/>
<path d="M264.354 190.993H53.6816C70.5776 127.303 111.382 82.4067 159.018 82.4067C206.653 82.4067 247.458 127.303 264.354 190.993Z" fill="#F38624"/>
<path d="M478.602 256.464C478.602 362.224 422.628 447.947 353.585 447.947C284.542 447.947 228.568 362.224 228.568 256.464C228.568 230.982 231.817 206.661 237.716 184.445C256.301 114.386 301.186 65 353.585 65C405.984 65 450.869 114.386 469.455 184.445C475.353 206.679 478.602 231 478.602 256.464Z" fill="white"/>
<path d="M467.238 256.465C467.238 352.611 416.352 430.54 353.586 430.54C290.82 430.54 239.934 352.611 239.934 256.465C239.934 233.299 242.887 211.189 248.25 190.993C265.146 127.303 305.95 82.4067 353.586 82.4067C401.221 82.4067 442.026 127.303 458.922 190.993C464.284 211.206 467.238 233.316 467.238 256.465Z" fill="#F4C789"/>
<path d="M341.21 136.692C303.046 136.692 270.739 175.104 259.865 228.052L336.359 251.334L256.136 275.754C258.991 343.932 295.984 397.887 341.227 397.887C386.47 397.887 426.499 339.411 426.499 267.289C426.499 195.168 388.318 136.692 341.227 136.692H341.21Z" fill="#0C0C0C"/>
<path d="M458.921 190.993H248.25C265.146 127.303 305.95 82.4067 353.585 82.4067C401.221 82.4067 442.025 127.303 458.921 190.993Z" fill="#F38624"/>
</svg>
