<svg xmlns="http://www.w3.org/2000/svg" width="100%" viewBox="0 0 540 540" fill="none" class="sun__sun-svg"><mask id="path-1-outside-1_81_977" maskUnits="userSpaceOnUse" x="6.10791" y="6.30811" width="527" height="527" fill="black"><rect fill="white" x="6.10791" y="6.30811" width="527" height="527"></rect><path d="M510.671 279.267C510.681 279.277 510.697 279.277 510.707 279.268L529.472 262.433C531.471 260.639 531.343 257.469 529.206 255.842L512.621 243.215C510.703 241.755 510.369 239.001 511.881 237.125L524.959 220.902C526.644 218.811 526.01 215.702 523.64 214.439L505.256 204.643C503.129 203.509 502.357 200.844 503.549 198.75L513.854 180.638C515.182 178.304 514.057 175.338 511.515 174.472L491.791 167.746C489.51 166.968 488.321 164.462 489.161 162.203L496.43 142.675C497.367 140.159 495.781 137.411 493.133 136.963L472.583 133.487C470.207 133.085 468.631 130.802 469.098 128.439L473.136 107.991C473.656 105.357 471.651 102.9 468.966 102.883L448.129 102.748C445.72 102.733 443.798 100.732 443.88 98.3237L444.589 77.4923C444.68 74.8084 442.306 72.7046 439.652 73.1186L419.06 76.3318C416.679 76.7033 414.461 75.0369 414.155 72.6468L411.51 51.9748C411.169 49.3112 408.488 47.616 405.935 48.4506L386.134 54.925C383.843 55.6739 381.386 54.3846 380.701 52.0742L374.775 32.0921C374.012 29.5178 371.094 28.2744 368.708 29.5069L350.192 39.0735C348.051 40.1796 345.42 39.3009 344.373 37.1305L335.32 18.3583C334.154 15.9395 331.073 15.1803 328.916 16.7799L312.179 29.1923C310.244 30.6276 307.506 30.1828 306.124 28.2087L294.175 11.134C292.636 8.93423 289.474 8.67901 287.602 10.6033L273.068 25.5402C271.388 27.267 268.614 27.267 266.934 25.5403L252.4 10.6033C250.528 8.67901 247.366 8.93423 245.827 11.1339L233.878 28.2087C232.496 30.1828 229.758 30.6276 227.823 29.1923L211.086 16.7799C208.929 15.1803 205.848 15.9395 204.682 18.3583L195.629 37.1305C194.582 39.3009 191.951 40.1796 189.81 39.0735L171.294 29.5069C168.908 28.2744 165.99 29.5179 165.227 32.0921L159.301 52.0742C158.616 54.3846 156.159 55.6739 153.868 54.925L134.067 48.4506C131.514 47.616 128.833 49.3112 128.492 51.9748L125.847 72.6468C125.541 75.0369 123.323 76.7033 120.942 76.3318L100.35 73.1186C97.6964 72.7046 95.3218 74.8084 95.4132 77.4923L96.1218 98.3147C96.2038 100.723 94.2821 102.724 91.8726 102.74L71.036 102.874C68.3511 102.891 66.3452 105.348 66.8654 107.982L70.9035 128.428C71.3705 130.793 69.794 133.076 67.4178 133.477L46.8699 136.947C44.2216 137.394 42.635 140.141 43.5717 142.659L50.8411 162.194C51.6814 164.453 50.4922 166.959 48.2115 167.737L28.4866 174.463C25.945 175.329 24.8203 178.295 26.1482 180.629L36.4529 198.74C37.6447 200.835 36.8725 203.5 34.7455 204.633L16.3544 214.431C13.984 215.693 13.3492 218.802 15.0347 220.893L28.1122 237.116C29.6244 238.992 29.2903 241.747 27.3734 243.206L10.7944 255.833C8.65828 257.46 8.53083 260.63 10.5295 262.423L26.0378 276.337C27.8316 277.947 27.9432 280.719 26.2846 282.468L11.9433 297.585C10.0947 299.533 10.4773 302.683 12.7385 304.133L30.2797 315.377C32.3088 316.677 32.864 319.396 31.5072 321.388L19.7809 338.605C18.2691 340.825 19.1517 343.872 21.6156 344.94L40.7352 353.23C42.946 354.188 43.9299 356.782 42.9109 358.966L34.0953 377.855C32.9597 380.288 34.3198 383.154 36.9231 383.813L57.1221 388.926C59.4586 389.517 60.846 391.92 60.1898 394.239L54.5151 414.293C53.7839 416.877 55.5859 419.488 58.2614 419.721L79.0158 421.529C81.4165 421.738 83.1712 423.888 82.8956 426.282L80.5132 446.982C80.2062 449.65 82.4038 451.938 85.0818 451.739L105.862 450.194C108.265 450.015 110.342 451.855 110.455 454.262L111.426 475.072C111.551 477.754 114.087 479.66 116.698 479.034L136.96 474.178C139.303 473.616 141.647 475.099 142.145 477.456L146.446 497.856C147 500.483 149.809 501.957 152.286 500.92L171.509 492.869C173.732 491.938 176.285 493.025 177.154 495.273L184.667 514.71C185.636 517.215 188.644 518.219 190.923 516.798L208.607 505.773C210.652 504.498 213.346 505.162 214.564 507.241L225.095 525.224C226.452 527.542 229.583 528.051 231.605 526.283L247.291 512.564C249.105 510.977 251.87 511.2 253.406 513.058L266.685 529.116C268.397 531.186 271.569 531.186 273.281 529.116L286.559 513.058C288.095 511.201 290.861 510.978 292.675 512.565L308.353 526.282C310.374 528.05 313.506 527.542 314.864 525.224L325.393 507.249C326.611 505.17 329.305 504.506 331.35 505.781L349.035 516.807C351.313 518.228 354.322 517.223 355.29 514.719L362.803 495.282C363.672 493.034 366.225 491.947 368.448 492.878L387.672 500.929C390.149 501.966 392.958 500.492 393.512 497.864L397.813 477.465C398.31 475.108 400.655 473.625 402.998 474.187L423.259 479.043C425.871 479.669 428.406 477.763 428.531 475.081L429.503 454.262C429.615 451.855 431.692 450.015 434.095 450.194L454.875 451.739C457.553 451.938 459.751 449.65 459.444 446.982L457.062 426.282C456.786 423.888 458.541 421.738 460.942 421.529L481.697 419.721C484.372 419.488 486.174 416.878 485.444 414.294L479.775 394.239C479.119 391.92 480.507 389.517 482.843 388.926L503.051 383.813C505.655 383.154 507.015 380.288 505.88 377.854L497.064 358.965C496.045 356.782 497.029 354.188 499.24 353.23L518.36 344.94C520.824 343.872 521.707 340.825 520.195 338.605L508.467 321.379C507.11 319.387 507.666 316.669 509.695 315.368L527.237 304.123C529.498 302.674 529.881 299.525 528.033 297.576L510.671 279.267ZM288.587 499.976C288.582 499.971 288.575 499.968 288.568 499.968H251.75C251.521 499.968 251.291 499.949 251.064 499.913L215.035 494.059C214.808 494.023 214.585 493.967 214.367 493.895L179.711 482.328C179.493 482.255 179.281 482.165 179.077 482.058L146.812 465.129C146.608 465.023 146.413 464.899 146.229 464.761L116.98 442.783C116.796 442.645 116.624 442.492 116.464 442.326L91.1975 416.018C91.0383 415.852 90.8927 415.674 90.7621 415.484L70.0353 385.458C69.9046 385.268 69.7895 385.069 69.6909 384.861L54.039 351.877C53.9404 351.669 53.8588 351.454 53.7948 351.233L43.628 316.14C43.5641 315.919 43.518 315.694 43.4903 315.465L39.0897 279.253C39.062 279.025 39.0527 278.795 39.0619 278.565L40.5315 242.063C40.5408 241.833 40.5685 241.605 40.6145 241.379L47.911 205.64C47.957 205.415 48.0211 205.193 48.1027 204.978L61.0604 170.821C61.1419 170.607 61.2406 170.399 61.3556 170.199L79.5974 138.607C79.7123 138.408 79.8432 138.218 79.9886 138.04L103.078 109.763C103.223 109.585 103.383 109.418 103.555 109.266L130.896 85.0482C131.068 84.8958 131.252 84.7576 131.446 84.6348L162.313 65.1153C162.508 64.9923 162.712 64.8852 162.923 64.7951L196.485 50.4994C196.696 50.4093 196.915 50.3364 197.138 50.2814L232.608 41.5409C232.831 41.4859 233.058 41.449 233.287 41.4305L269.665 38.4907C269.894 38.4722 270.125 38.4722 270.354 38.4907L306.742 41.4305C306.971 41.449 307.198 41.486 307.422 41.541L342.864 50.2814C343.087 50.3364 343.306 50.4093 343.517 50.4994L377.088 64.8042C377.299 64.8942 377.503 65.0011 377.697 65.1239L408.573 84.6434C408.768 84.7664 408.952 84.9049 409.124 85.0575L436.438 109.257C436.61 109.41 436.77 109.576 436.915 109.753L460.031 138.057C460.177 138.236 460.308 138.426 460.423 138.625L478.655 170.208C478.77 170.407 478.869 170.616 478.95 170.831L491.89 204.961C491.972 205.176 492.036 205.397 492.082 205.622L499.387 241.415C499.433 241.641 499.461 241.869 499.47 242.099L500.94 278.538C500.949 278.768 500.94 278.998 500.912 279.226L496.512 315.492C496.484 315.72 496.438 315.946 496.374 316.166L486.216 351.25C486.152 351.472 486.071 351.687 485.972 351.895L470.338 384.834C470.239 385.042 470.124 385.242 469.993 385.431L449.231 415.502C449.101 415.691 448.955 415.87 448.796 416.035L423.528 442.344C423.369 442.51 423.197 442.662 423.013 442.8L393.808 464.752C393.624 464.89 393.429 465.014 393.226 465.12L360.925 482.076C360.721 482.183 360.509 482.273 360.291 482.346L325.671 493.904C325.453 493.976 325.229 494.031 325.003 494.068L288.611 499.983C288.602 499.985 288.593 499.982 288.587 499.976Z"></path><path d="M288.587 499.976C288.582 499.971 288.575 499.968 288.568 499.968H251.75C251.521 499.968 251.291 499.949 251.064 499.913L215.035 494.059C214.808 494.023 214.585 493.967 214.367 493.895L179.711 482.328C179.493 482.255 179.281 482.165 179.077 482.058L146.812 465.129C146.608 465.023 146.413 464.899 146.229 464.761L116.98 442.783C116.796 442.645 116.624 442.492 116.464 442.326L91.1975 416.018C91.0383 415.852 90.8927 415.674 90.7621 415.484L70.0353 385.458C69.9046 385.268 69.7895 385.069 69.6909 384.861L54.039 351.877C53.9404 351.669 53.8588 351.454 53.7948 351.233L43.628 316.14C43.5641 315.919 43.518 315.694 43.4903 315.465L39.0897 279.253C39.062 279.025 39.0527 278.795 39.0619 278.565L40.5315 242.063C40.5408 241.833 40.5685 241.605 40.6145 241.379L47.911 205.64C47.957 205.415 48.0211 205.193 48.1027 204.978L61.0604 170.821C61.1419 170.607 61.2406 170.399 61.3556 170.199L79.5974 138.607C79.7123 138.408 79.8432 138.218 79.9886 138.04L103.078 109.763C103.223 109.585 103.383 109.418 103.555 109.266L130.896 85.0482C131.068 84.8958 131.252 84.7576 131.446 84.6348L162.313 65.1153C162.508 64.9923 162.712 64.8852 162.923 64.7951L196.485 50.4994C196.696 50.4093 196.915 50.3364 197.138 50.2814L232.608 41.5409C232.831 41.4859 233.058 41.449 233.287 41.4305L269.665 38.4907C269.894 38.4722 270.125 38.4722 270.354 38.4907L306.742 41.4305C306.971 41.449 307.198 41.486 307.422 41.541L342.864 50.2814C343.087 50.3364 343.306 50.4093 343.517 50.4994L377.088 64.8042C377.299 64.8942 377.503 65.0011 377.697 65.1239L408.573 84.6434C408.768 84.7664 408.952 84.9049 409.124 85.0575L436.438 109.257C436.61 109.41 436.77 109.576 436.915 109.753L460.031 138.057C460.177 138.236 460.308 138.426 460.423 138.625L478.655 170.208C478.77 170.407 478.869 170.616 478.95 170.831L491.89 204.961C491.972 205.176 492.036 205.397 492.082 205.622L499.387 241.415C499.433 241.641 499.461 241.869 499.47 242.099L500.94 278.538C500.949 278.768 500.94 278.998 500.912 279.226L496.512 315.492C496.484 315.72 496.438 315.946 496.374 316.166L486.216 351.25C486.152 351.472 486.071 351.687 485.972 351.895L470.338 384.834C470.239 385.042 470.124 385.242 469.993 385.431L449.231 415.502C449.101 415.691 448.955 415.87 448.796 416.035L423.528 442.344C423.369 442.51 423.197 442.662 423.013 442.8L393.808 464.752C393.624 464.89 393.429 465.014 393.226 465.12L360.925 482.076C360.721 482.183 360.509 482.273 360.291 482.346L325.671 493.904C325.453 493.976 325.229 494.031 325.003 494.068L288.611 499.983C288.602 499.985 288.593 499.982 288.587 499.976Z"></path></mask><path d="M510.671 279.267C510.681 279.277 510.697 279.277 510.707 279.268L529.472 262.433C531.471 260.639 531.343 257.469 529.206 255.842L512.621 243.215C510.703 241.755 510.369 239.001 511.881 237.125L524.959 220.902C526.644 218.811 526.01 215.702 523.64 214.439L505.256 204.643C503.129 203.509 502.357 200.844 503.549 198.75L513.854 180.638C515.182 178.304 514.057 175.338 511.515 174.472L491.791 167.746C489.51 166.968 488.321 164.462 489.161 162.203L496.43 142.675C497.367 140.159 495.781 137.411 493.133 136.963L472.583 133.487C470.207 133.085 468.631 130.802 469.098 128.439L473.136 107.991C473.656 105.357 471.651 102.9 468.966 102.883L448.129 102.748C445.72 102.733 443.798 100.732 443.88 98.3237L444.589 77.4923C444.68 74.8084 442.306 72.7046 439.652 73.1186L419.06 76.3318C416.679 76.7033 414.461 75.0369 414.155 72.6468L411.51 51.9748C411.169 49.3112 408.488 47.616 405.935 48.4506L386.134 54.925C383.843 55.6739 381.386 54.3846 380.701 52.0742L374.775 32.0921C374.012 29.5178 371.094 28.2744 368.708 29.5069L350.192 39.0735C348.051 40.1796 345.42 39.3009 344.373 37.1305L335.32 18.3583C334.154 15.9395 331.073 15.1803 328.916 16.7799L312.179 29.1923C310.244 30.6276 307.506 30.1828 306.124 28.2087L294.175 11.134C292.636 8.93423 289.474 8.67901 287.602 10.6033L273.068 25.5402C271.388 27.267 268.614 27.267 266.934 25.5403L252.4 10.6033C250.528 8.67901 247.366 8.93423 245.827 11.1339L233.878 28.2087C232.496 30.1828 229.758 30.6276 227.823 29.1923L211.086 16.7799C208.929 15.1803 205.848 15.9395 204.682 18.3583L195.629 37.1305C194.582 39.3009 191.951 40.1796 189.81 39.0735L171.294 29.5069C168.908 28.2744 165.99 29.5179 165.227 32.0921L159.301 52.0742C158.616 54.3846 156.159 55.6739 153.868 54.925L134.067 48.4506C131.514 47.616 128.833 49.3112 128.492 51.9748L125.847 72.6468C125.541 75.0369 123.323 76.7033 120.942 76.3318L100.35 73.1186C97.6964 72.7046 95.3218 74.8084 95.4132 77.4923L96.1218 98.3147C96.2038 100.723 94.2821 102.724 91.8726 102.74L71.036 102.874C68.3511 102.891 66.3452 105.348 66.8654 107.982L70.9035 128.428C71.3705 130.793 69.794 133.076 67.4178 133.477L46.8699 136.947C44.2216 137.394 42.635 140.141 43.5717 142.659L50.8411 162.194C51.6814 164.453 50.4922 166.959 48.2115 167.737L28.4866 174.463C25.945 175.329 24.8203 178.295 26.1482 180.629L36.4529 198.74C37.6447 200.835 36.8725 203.5 34.7455 204.633L16.3544 214.431C13.984 215.693 13.3492 218.802 15.0347 220.893L28.1122 237.116C29.6244 238.992 29.2903 241.747 27.3734 243.206L10.7944 255.833C8.65828 257.46 8.53083 260.63 10.5295 262.423L26.0378 276.337C27.8316 277.947 27.9432 280.719 26.2846 282.468L11.9433 297.585C10.0947 299.533 10.4773 302.683 12.7385 304.133L30.2797 315.377C32.3088 316.677 32.864 319.396 31.5072 321.388L19.7809 338.605C18.2691 340.825 19.1517 343.872 21.6156 344.94L40.7352 353.23C42.946 354.188 43.9299 356.782 42.9109 358.966L34.0953 377.855C32.9597 380.288 34.3198 383.154 36.9231 383.813L57.1221 388.926C59.4586 389.517 60.846 391.92 60.1898 394.239L54.5151 414.293C53.7839 416.877 55.5859 419.488 58.2614 419.721L79.0158 421.529C81.4165 421.738 83.1712 423.888 82.8956 426.282L80.5132 446.982C80.2062 449.65 82.4038 451.938 85.0818 451.739L105.862 450.194C108.265 450.015 110.342 451.855 110.455 454.262L111.426 475.072C111.551 477.754 114.087 479.66 116.698 479.034L136.96 474.178C139.303 473.616 141.647 475.099 142.145 477.456L146.446 497.856C147 500.483 149.809 501.957 152.286 500.92L171.509 492.869C173.732 491.938 176.285 493.025 177.154 495.273L184.667 514.71C185.636 517.215 188.644 518.219 190.923 516.798L208.607 505.773C210.652 504.498 213.346 505.162 214.564 507.241L225.095 525.224C226.452 527.542 229.583 528.051 231.605 526.283L247.291 512.564C249.105 510.977 251.87 511.2 253.406 513.058L266.685 529.116C268.397 531.186 271.569 531.186 273.281 529.116L286.559 513.058C288.095 511.201 290.861 510.978 292.675 512.565L308.353 526.282C310.374 528.05 313.506 527.542 314.864 525.224L325.393 507.249C326.611 505.17 329.305 504.506 331.35 505.781L349.035 516.807C351.313 518.228 354.322 517.223 355.29 514.719L362.803 495.282C363.672 493.034 366.225 491.947 368.448 492.878L387.672 500.929C390.149 501.966 392.958 500.492 393.512 497.864L397.813 477.465C398.31 475.108 400.655 473.625 402.998 474.187L423.259 479.043C425.871 479.669 428.406 477.763 428.531 475.081L429.503 454.262C429.615 451.855 431.692 450.015 434.095 450.194L454.875 451.739C457.553 451.938 459.751 449.65 459.444 446.982L457.062 426.282C456.786 423.888 458.541 421.738 460.942 421.529L481.697 419.721C484.372 419.488 486.174 416.878 485.444 414.294L479.775 394.239C479.119 391.92 480.507 389.517 482.843 388.926L503.051 383.813C505.655 383.154 507.015 380.288 505.88 377.854L497.064 358.965C496.045 356.782 497.029 354.188 499.24 353.23L518.36 344.94C520.824 343.872 521.707 340.825 520.195 338.605L508.467 321.379C507.11 319.387 507.666 316.669 509.695 315.368L527.237 304.123C529.498 302.674 529.881 299.525 528.033 297.576L510.671 279.267ZM288.587 499.976C288.582 499.971 288.575 499.968 288.568 499.968H251.75C251.521 499.968 251.291 499.949 251.064 499.913L215.035 494.059C214.808 494.023 214.585 493.967 214.367 493.895L179.711 482.328C179.493 482.255 179.281 482.165 179.077 482.058L146.812 465.129C146.608 465.023 146.413 464.899 146.229 464.761L116.98 442.783C116.796 442.645 116.624 442.492 116.464 442.326L91.1975 416.018C91.0383 415.852 90.8927 415.674 90.7621 415.484L70.0353 385.458C69.9046 385.268 69.7895 385.069 69.6909 384.861L54.039 351.877C53.9404 351.669 53.8588 351.454 53.7948 351.233L43.628 316.14C43.5641 315.919 43.518 315.694 43.4903 315.465L39.0897 279.253C39.062 279.025 39.0527 278.795 39.0619 278.565L40.5315 242.063C40.5408 241.833 40.5685 241.605 40.6145 241.379L47.911 205.64C47.957 205.415 48.0211 205.193 48.1027 204.978L61.0604 170.821C61.1419 170.607 61.2406 170.399 61.3556 170.199L79.5974 138.607C79.7123 138.408 79.8432 138.218 79.9886 138.04L103.078 109.763C103.223 109.585 103.383 109.418 103.555 109.266L130.896 85.0482C131.068 84.8958 131.252 84.7576 131.446 84.6348L162.313 65.1153C162.508 64.9923 162.712 64.8852 162.923 64.7951L196.485 50.4994C196.696 50.4093 196.915 50.3364 197.138 50.2814L232.608 41.5409C232.831 41.4859 233.058 41.449 233.287 41.4305L269.665 38.4907C269.894 38.4722 270.125 38.4722 270.354 38.4907L306.742 41.4305C306.971 41.449 307.198 41.486 307.422 41.541L342.864 50.2814C343.087 50.3364 343.306 50.4093 343.517 50.4994L377.088 64.8042C377.299 64.8942 377.503 65.0011 377.697 65.1239L408.573 84.6434C408.768 84.7664 408.952 84.9049 409.124 85.0575L436.438 109.257C436.61 109.41 436.77 109.576 436.915 109.753L460.031 138.057C460.177 138.236 460.308 138.426 460.423 138.625L478.655 170.208C478.77 170.407 478.869 170.616 478.95 170.831L491.89 204.961C491.972 205.176 492.036 205.397 492.082 205.622L499.387 241.415C499.433 241.641 499.461 241.869 499.47 242.099L500.94 278.538C500.949 278.768 500.94 278.998 500.912 279.226L496.512 315.492C496.484 315.72 496.438 315.946 496.374 316.166L486.216 351.25C486.152 351.472 486.071 351.687 485.972 351.895L470.338 384.834C470.239 385.042 470.124 385.242 469.993 385.431L449.231 415.502C449.101 415.691 448.955 415.87 448.796 416.035L423.528 442.344C423.369 442.51 423.197 442.662 423.013 442.8L393.808 464.752C393.624 464.89 393.429 465.014 393.226 465.12L360.925 482.076C360.721 482.183 360.509 482.273 360.291 482.346L325.671 493.904C325.453 493.976 325.229 494.031 325.003 494.068L288.611 499.983C288.602 499.985 288.593 499.982 288.587 499.976Z" fill="#F3A20F"></path><path d="M288.587 499.976C288.582 499.971 288.575 499.968 288.568 499.968H251.75C251.521 499.968 251.291 499.949 251.064 499.913L215.035 494.059C214.808 494.023 214.585 493.967 214.367 493.895L179.711 482.328C179.493 482.255 179.281 482.165 179.077 482.058L146.812 465.129C146.608 465.023 146.413 464.899 146.229 464.761L116.98 442.783C116.796 442.645 116.624 442.492 116.464 442.326L91.1975 416.018C91.0383 415.852 90.8927 415.674 90.7621 415.484L70.0353 385.458C69.9046 385.268 69.7895 385.069 69.6909 384.861L54.039 351.877C53.9404 351.669 53.8588 351.454 53.7948 351.233L43.628 316.14C43.5641 315.919 43.518 315.694 43.4903 315.465L39.0897 279.253C39.062 279.025 39.0527 278.795 39.0619 278.565L40.5315 242.063C40.5408 241.833 40.5685 241.605 40.6145 241.379L47.911 205.64C47.957 205.415 48.0211 205.193 48.1027 204.978L61.0604 170.821C61.1419 170.607 61.2406 170.399 61.3556 170.199L79.5974 138.607C79.7123 138.408 79.8432 138.218 79.9886 138.04L103.078 109.763C103.223 109.585 103.383 109.418 103.555 109.266L130.896 85.0482C131.068 84.8958 131.252 84.7576 131.446 84.6348L162.313 65.1153C162.508 64.9923 162.712 64.8852 162.923 64.7951L196.485 50.4994C196.696 50.4093 196.915 50.3364 197.138 50.2814L232.608 41.5409C232.831 41.4859 233.058 41.449 233.287 41.4305L269.665 38.4907C269.894 38.4722 270.125 38.4722 270.354 38.4907L306.742 41.4305C306.971 41.449 307.198 41.486 307.422 41.541L342.864 50.2814C343.087 50.3364 343.306 50.4093 343.517 50.4994L377.088 64.8042C377.299 64.8942 377.503 65.0011 377.697 65.1239L408.573 84.6434C408.768 84.7664 408.952 84.9049 409.124 85.0575L436.438 109.257C436.61 109.41 436.77 109.576 436.915 109.753L460.031 138.057C460.177 138.236 460.308 138.426 460.423 138.625L478.655 170.208C478.77 170.407 478.869 170.616 478.95 170.831L491.89 204.961C491.972 205.176 492.036 205.397 492.082 205.622L499.387 241.415C499.433 241.641 499.461 241.869 499.47 242.099L500.94 278.538C500.949 278.768 500.94 278.998 500.912 279.226L496.512 315.492C496.484 315.72 496.438 315.946 496.374 316.166L486.216 351.25C486.152 351.472 486.071 351.687 485.972 351.895L470.338 384.834C470.239 385.042 470.124 385.242 469.993 385.431L449.231 415.502C449.101 415.691 448.955 415.87 448.796 416.035L423.528 442.344C423.369 442.51 423.197 442.662 423.013 442.8L393.808 464.752C393.624 464.89 393.429 465.014 393.226 465.12L360.925 482.076C360.721 482.183 360.509 482.273 360.291 482.346L325.671 493.904C325.453 493.976 325.229 494.031 325.003 494.068L288.611 499.983C288.602 499.985 288.593 499.982 288.587 499.976Z" fill="#F3ECD2"></path><path d="M510.671 279.267C510.681 279.277 510.697 279.277 510.707 279.268L529.472 262.433C531.471 260.639 531.343 257.469 529.206 255.842L512.621 243.215C510.703 241.755 510.369 239.001 511.881 237.125L524.959 220.902C526.644 218.811 526.01 215.702 523.64 214.439L505.256 204.643C503.129 203.509 502.357 200.844 503.549 198.75L513.854 180.638C515.182 178.304 514.057 175.338 511.515 174.472L491.791 167.746C489.51 166.968 488.321 164.462 489.161 162.203L496.43 142.675C497.367 140.159 495.781 137.411 493.133 136.963L472.583 133.487C470.207 133.085 468.631 130.802 469.098 128.439L473.136 107.991C473.656 105.357 471.651 102.9 468.966 102.883L448.129 102.748C445.72 102.733 443.798 100.732 443.88 98.3237L444.589 77.4923C444.68 74.8084 442.306 72.7046 439.652 73.1186L419.06 76.3318C416.679 76.7033 414.461 75.0369 414.155 72.6468L411.51 51.9748C411.169 49.3112 408.488 47.616 405.935 48.4506L386.134 54.925C383.843 55.6739 381.386 54.3846 380.701 52.0742L374.775 32.0921C374.012 29.5178 371.094 28.2744 368.708 29.5069L350.192 39.0735C348.051 40.1796 345.42 39.3009 344.373 37.1305L335.32 18.3583C334.154 15.9395 331.073 15.1803 328.916 16.7799L312.179 29.1923C310.244 30.6276 307.506 30.1828 306.124 28.2087L294.175 11.134C292.636 8.93423 289.474 8.67901 287.602 10.6033L273.068 25.5402C271.388 27.267 268.614 27.267 266.934 25.5403L252.4 10.6033C250.528 8.67901 247.366 8.93423 245.827 11.1339L233.878 28.2087C232.496 30.1828 229.758 30.6276 227.823 29.1923L211.086 16.7799C208.929 15.1803 205.848 15.9395 204.682 18.3583L195.629 37.1305C194.582 39.3009 191.951 40.1796 189.81 39.0735L171.294 29.5069C168.908 28.2744 165.99 29.5179 165.227 32.0921L159.301 52.0742C158.616 54.3846 156.159 55.6739 153.868 54.925L134.067 48.4506C131.514 47.616 128.833 49.3112 128.492 51.9748L125.847 72.6468C125.541 75.0369 123.323 76.7033 120.942 76.3318L100.35 73.1186C97.6964 72.7046 95.3218 74.8084 95.4132 77.4923L96.1218 98.3147C96.2038 100.723 94.2821 102.724 91.8726 102.74L71.036 102.874C68.3511 102.891 66.3452 105.348 66.8654 107.982L70.9035 128.428C71.3705 130.793 69.794 133.076 67.4178 133.477L46.8699 136.947C44.2216 137.394 42.635 140.141 43.5717 142.659L50.8411 162.194C51.6814 164.453 50.4922 166.959 48.2115 167.737L28.4866 174.463C25.945 175.329 24.8203 178.295 26.1482 180.629L36.4529 198.74C37.6447 200.835 36.8725 203.5 34.7455 204.633L16.3544 214.431C13.984 215.693 13.3492 218.802 15.0347 220.893L28.1122 237.116C29.6244 238.992 29.2903 241.747 27.3734 243.206L10.7944 255.833C8.65828 257.46 8.53083 260.63 10.5295 262.423L26.0378 276.337C27.8316 277.947 27.9432 280.719 26.2846 282.468L11.9433 297.585C10.0947 299.533 10.4773 302.683 12.7385 304.133L30.2797 315.377C32.3088 316.677 32.864 319.396 31.5072 321.388L19.7809 338.605C18.2691 340.825 19.1517 343.872 21.6156 344.94L40.7352 353.23C42.946 354.188 43.9299 356.782 42.9109 358.966L34.0953 377.855C32.9597 380.288 34.3198 383.154 36.9231 383.813L57.1221 388.926C59.4586 389.517 60.846 391.92 60.1898 394.239L54.5151 414.293C53.7839 416.877 55.5859 419.488 58.2614 419.721L79.0158 421.529C81.4165 421.738 83.1712 423.888 82.8956 426.282L80.5132 446.982C80.2062 449.65 82.4038 451.938 85.0818 451.739L105.862 450.194C108.265 450.015 110.342 451.855 110.455 454.262L111.426 475.072C111.551 477.754 114.087 479.66 116.698 479.034L136.96 474.178C139.303 473.616 141.647 475.099 142.145 477.456L146.446 497.856C147 500.483 149.809 501.957 152.286 500.92L171.509 492.869C173.732 491.938 176.285 493.025 177.154 495.273L184.667 514.71C185.636 517.215 188.644 518.219 190.923 516.798L208.607 505.773C210.652 504.498 213.346 505.162 214.564 507.241L225.095 525.224C226.452 527.542 229.583 528.051 231.605 526.283L247.291 512.564C249.105 510.977 251.87 511.2 253.406 513.058L266.685 529.116C268.397 531.186 271.569 531.186 273.281 529.116L286.559 513.058C288.095 511.201 290.861 510.978 292.675 512.565L308.353 526.282C310.374 528.05 313.506 527.542 314.864 525.224L325.393 507.249C326.611 505.17 329.305 504.506 331.35 505.781L349.035 516.807C351.313 518.228 354.322 517.223 355.29 514.719L362.803 495.282C363.672 493.034 366.225 491.947 368.448 492.878L387.672 500.929C390.149 501.966 392.958 500.492 393.512 497.864L397.813 477.465C398.31 475.108 400.655 473.625 402.998 474.187L423.259 479.043C425.871 479.669 428.406 477.763 428.531 475.081L429.503 454.262C429.615 451.855 431.692 450.015 434.095 450.194L454.875 451.739C457.553 451.938 459.751 449.65 459.444 446.982L457.062 426.282C456.786 423.888 458.541 421.738 460.942 421.529L481.697 419.721C484.372 419.488 486.174 416.878 485.444 414.294L479.775 394.239C479.119 391.92 480.507 389.517 482.843 388.926L503.051 383.813C505.655 383.154 507.015 380.288 505.88 377.854L497.064 358.965C496.045 356.782 497.029 354.188 499.24 353.23L518.36 344.94C520.824 343.872 521.707 340.825 520.195 338.605L508.467 321.379C507.11 319.387 507.666 316.669 509.695 315.368L527.237 304.123C529.498 302.674 529.881 299.525 528.033 297.576L510.671 279.267ZM288.587 499.976C288.582 499.971 288.575 499.968 288.568 499.968H251.75C251.521 499.968 251.291 499.949 251.064 499.913L215.035 494.059C214.808 494.023 214.585 493.967 214.367 493.895L179.711 482.328C179.493 482.255 179.281 482.165 179.077 482.058L146.812 465.129C146.608 465.023 146.413 464.899 146.229 464.761L116.98 442.783C116.796 442.645 116.624 442.492 116.464 442.326L91.1975 416.018C91.0383 415.852 90.8927 415.674 90.7621 415.484L70.0353 385.458C69.9046 385.268 69.7895 385.069 69.6909 384.861L54.039 351.877C53.9404 351.669 53.8588 351.454 53.7948 351.233L43.628 316.14C43.5641 315.919 43.518 315.694 43.4903 315.465L39.0897 279.253C39.062 279.025 39.0527 278.795 39.0619 278.565L40.5315 242.063C40.5408 241.833 40.5685 241.605 40.6145 241.379L47.911 205.64C47.957 205.415 48.0211 205.193 48.1027 204.978L61.0604 170.821C61.1419 170.607 61.2406 170.399 61.3556 170.199L79.5974 138.607C79.7123 138.408 79.8432 138.218 79.9886 138.04L103.078 109.763C103.223 109.585 103.383 109.418 103.555 109.266L130.896 85.0482C131.068 84.8958 131.252 84.7576 131.446 84.6348L162.313 65.1153C162.508 64.9923 162.712 64.8852 162.923 64.7951L196.485 50.4994C196.696 50.4093 196.915 50.3364 197.138 50.2814L232.608 41.5409C232.831 41.4859 233.058 41.449 233.287 41.4305L269.665 38.4907C269.894 38.4722 270.125 38.4722 270.354 38.4907L306.742 41.4305C306.971 41.449 307.198 41.486 307.422 41.541L342.864 50.2814C343.087 50.3364 343.306 50.4093 343.517 50.4994L377.088 64.8042C377.299 64.8942 377.503 65.0011 377.697 65.1239L408.573 84.6434C408.768 84.7664 408.952 84.9049 409.124 85.0575L436.438 109.257C436.61 109.41 436.77 109.576 436.915 109.753L460.031 138.057C460.177 138.236 460.308 138.426 460.423 138.625L478.655 170.208C478.77 170.407 478.869 170.616 478.95 170.831L491.89 204.961C491.972 205.176 492.036 205.397 492.082 205.622L499.387 241.415C499.433 241.641 499.461 241.869 499.47 242.099L500.94 278.538C500.949 278.768 500.94 278.998 500.912 279.226L496.512 315.492C496.484 315.72 496.438 315.946 496.374 316.166L486.216 351.25C486.152 351.472 486.071 351.687 485.972 351.895L470.338 384.834C470.239 385.042 470.124 385.242 469.993 385.431L449.231 415.502C449.101 415.691 448.955 415.87 448.796 416.035L423.528 442.344C423.369 442.51 423.197 442.662 423.013 442.8L393.808 464.752C393.624 464.89 393.429 465.014 393.226 465.12L360.925 482.076C360.721 482.183 360.509 482.273 360.291 482.346L325.671 493.904C325.453 493.976 325.229 494.031 325.003 494.068L288.611 499.983C288.602 499.985 288.593 499.982 288.587 499.976Z" stroke="#121212" stroke-width="4.41255" mask="url(#path-1-outside-1_81_977)"></path><path d="M288.587 499.976C288.582 499.971 288.575 499.968 288.568 499.968H251.75C251.521 499.968 251.291 499.949 251.064 499.913L215.035 494.059C214.808 494.023 214.585 493.967 214.367 493.895L179.711 482.328C179.493 482.255 179.281 482.165 179.077 482.058L146.812 465.129C146.608 465.023 146.413 464.899 146.229 464.761L116.98 442.783C116.796 442.645 116.624 442.492 116.464 442.326L91.1975 416.018C91.0383 415.852 90.8927 415.674 90.7621 415.484L70.0353 385.458C69.9046 385.268 69.7895 385.069 69.6909 384.861L54.039 351.877C53.9404 351.669 53.8588 351.454 53.7948 351.233L43.628 316.14C43.5641 315.919 43.518 315.694 43.4903 315.465L39.0897 279.253C39.062 279.025 39.0527 278.795 39.0619 278.565L40.5315 242.063C40.5408 241.833 40.5685 241.605 40.6145 241.379L47.911 205.64C47.957 205.415 48.0211 205.193 48.1027 204.978L61.0604 170.821C61.1419 170.607 61.2406 170.399 61.3556 170.199L79.5974 138.607C79.7123 138.408 79.8432 138.218 79.9886 138.04L103.078 109.763C103.223 109.585 103.383 109.418 103.555 109.266L130.896 85.0482C131.068 84.8958 131.252 84.7576 131.446 84.6348L162.313 65.1153C162.508 64.9923 162.712 64.8852 162.923 64.7951L196.485 50.4994C196.696 50.4093 196.915 50.3364 197.138 50.2814L232.608 41.5409C232.831 41.4859 233.058 41.449 233.287 41.4305L269.665 38.4907C269.894 38.4722 270.125 38.4722 270.354 38.4907L306.742 41.4305C306.971 41.449 307.198 41.486 307.422 41.541L342.864 50.2814C343.087 50.3364 343.306 50.4093 343.517 50.4994L377.088 64.8042C377.299 64.8942 377.503 65.0011 377.697 65.1239L408.573 84.6434C408.768 84.7664 408.952 84.9049 409.124 85.0575L436.438 109.257C436.61 109.41 436.77 109.576 436.915 109.753L460.031 138.057C460.177 138.236 460.308 138.426 460.423 138.625L478.655 170.208C478.77 170.407 478.869 170.616 478.95 170.831L491.89 204.961C491.972 205.176 492.036 205.397 492.082 205.622L499.387 241.415C499.433 241.641 499.461 241.869 499.47 242.099L500.94 278.538C500.949 278.768 500.94 278.998 500.912 279.226L496.512 315.492C496.484 315.72 496.438 315.946 496.374 316.166L486.216 351.25C486.152 351.472 486.071 351.687 485.972 351.895L470.338 384.834C470.239 385.042 470.124 385.242 469.993 385.431L449.231 415.502C449.101 415.691 448.955 415.87 448.796 416.035L423.528 442.344C423.369 442.51 423.197 442.662 423.013 442.8L393.808 464.752C393.624 464.89 393.429 465.014 393.226 465.12L360.925 482.076C360.721 482.183 360.509 482.273 360.291 482.346L325.671 493.904C325.453 493.976 325.229 494.031 325.003 494.068L288.611 499.983C288.602 499.985 288.593 499.982 288.587 499.976Z" stroke="#121212" stroke-width="4.41255" mask="url(#path-1-outside-1_81_977)"></path><path d="M270 50.2021C148.609 50.2022 50.2031 148.609 50.2031 270C50.2032 391.391 148.609 489.797 270 489.797C391.391 489.797 489.798 391.391 489.798 270C489.798 148.609 391.391 50.2021 270 50.2021Z" fill="#F3A20F" stroke="#121212" stroke-width="2.20627"></path><path d="M270 39.2139C142.541 39.214 39.2148 142.541 39.2148 270C39.215 397.459 142.541 500.785 270 500.785C397.459 500.785 500.786 397.459 500.786 270C500.786 142.541 397.459 39.2139 270 39.2139Z" stroke="#121212" stroke-width="2.20627"></path></svg>