<svg width="246" height="246" viewBox="0 0 246 246" fill="none" xmlns="http://www.w3.org/2000/svg">
<g clip-path="url(#clip0_544_16)">
<path d="M111.245 0.508083C136.334 -1.80072 162.125 3.76248 183.902 16.5161C209.15 31.1657 228.329 54.3585 237.977 81.9079C247.625 109.457 247.106 139.548 236.515 166.749C225.924 193.95 205.958 216.468 180.221 230.24C154.483 244.011 124.671 248.128 96.1647 241.847C67.6584 235.567 42.3364 219.303 24.7695 195.99C7.20266 172.678 -1.45169 143.854 0.368671 114.721C2.18903 85.5877 14.3642 58.0651 34.6964 37.121C55.0285 16.1769 82.1782 3.19124 111.245 0.508083ZM92.9566 61.8281C92.9566 62.9097 92.9566 63.9913 92.9566 65.0729C71.6446 65.0729 50.3358 65.0729 29.0302 65.0729C29.0302 65.7737 29.0302 66.4745 29.0302 67.1801C50.339 67.1801 71.6462 67.1801 92.9518 67.1801C92.9518 68.2777 92.9518 69.3769 92.9518 70.4777H95.0206C95.0206 67.5977 95.0206 64.7177 95.0206 61.8377L92.9566 61.8281ZM100.094 61.8281C100.094 64.7081 100.094 67.5881 100.094 70.4681H102.149C102.149 67.5881 102.149 64.7081 102.149 61.8281H100.094ZM121.406 61.8281C121.406 64.7081 121.406 67.5881 121.406 70.4681H123.475C123.475 67.5881 123.475 64.7081 123.475 61.8281H121.406ZM128.486 61.8281C128.486 64.7081 128.486 67.5881 128.486 70.4681H130.55C130.55 67.5881 130.55 64.7081 130.55 61.8281H128.486ZM135.624 61.8281C135.624 64.7081 135.624 67.5881 135.624 70.4681H137.683C137.683 67.5881 137.683 64.7081 137.683 61.8281H135.624ZM107.174 61.8281C107.174 64.7081 107.174 67.5881 107.174 70.4681H109.238C109.238 67.5881 109.238 64.7081 109.238 61.8281H107.174ZM114.249 61.8281C114.249 64.7081 114.249 67.5881 114.249 70.4681H116.385C116.385 67.5881 116.385 64.7081 116.385 61.8281H114.249ZM142.709 61.8281C142.709 64.7081 142.709 67.5881 142.709 70.4681H144.768C144.768 67.5881 144.768 64.7081 144.768 61.8281H142.709ZM149.779 61.8281C149.779 64.7081 149.779 67.5881 149.779 70.4681H151.915C151.915 69.3705 151.915 68.2713 151.915 67.1705C173.221 67.1705 194.531 67.1705 215.846 67.1705C215.846 66.6617 215.846 65.6345 215.846 65.1257C194.534 65.1257 173.222 65.1257 151.91 65.1257C151.91 64.0361 151.91 62.9465 151.91 61.8617L149.779 61.8281ZM133.209 74.1449C133.008 78.5336 133.032 82.9298 133.281 87.3161C132.542 87.7433 131.798 88.1561 131.049 88.5641C137.16 92.1689 143.342 95.6585 149.462 99.2585C149.462 92.1593 149.462 85.0649 149.462 77.9705C149.462 76.6793 149.433 75.3881 149.366 74.1017C143.99 73.9577 138.59 73.9193 133.209 74.1497V74.1449ZM155.769 78.0089V95.7449C173.616 95.7705 191.461 95.7705 209.304 95.7449C209.304 89.8313 209.304 83.9113 209.304 77.9849C191.457 77.9977 173.611 78.0073 155.765 78.0137L155.769 78.0089ZM44.2078 88.6409C37.2862 95.4905 33.1678 105.105 33.2302 114.868C32.9758 127.487 39.8302 139.905 50.5102 146.582C63.3358 154.703 81.1966 153.954 93.115 144.47C93.2158 146.87 93.1774 149.303 93.3166 151.718C95.995 151.78 98.7118 152.073 101.357 151.506C107.443 147.945 113.568 144.45 119.669 140.913C113.601 137.226 107.376 133.809 101.27 130.18C100.541 132.652 101.184 135.278 100.848 137.812C98.3662 138.206 95.8558 137.932 93.3646 138.143C90.4366 135.182 87.4942 132.239 84.6142 129.258C80.7888 133.025 75.6305 135.128 70.2622 135.11C67.6185 135.102 65.0026 134.57 62.5654 133.546C60.1282 132.522 57.9179 131.025 56.062 129.143C54.2061 127.26 52.7413 125.028 51.7522 122.577C50.7631 120.125 50.2692 117.502 50.299 114.858C50.4253 109.53 52.5979 104.454 56.3662 100.684C61.1134 95.9513 68.299 94.1705 74.7886 95.5241C78.4222 96.4601 81.9118 98.1545 84.5182 100.9C88.627 96.9785 92.587 92.8985 96.6142 88.9001C89.851 82.0361 80.2942 77.9081 70.627 78.0185C65.7384 77.9446 60.8841 78.846 56.3479 80.6699C51.8117 82.4937 47.6846 85.2035 44.2078 88.6409ZM100.325 95.1305C100.488 98.7593 102.499 102.004 105.005 104.519C108.931 108.436 113.645 111.412 118.406 114.22C123.84 117.503 129.331 120.767 134.246 124.818C137.827 127.818 141.177 131.658 141.974 136.41C142.548 138.908 142.585 141.499 142.084 144.011C141.582 146.524 140.554 148.902 139.065 150.988L139.109 151.65C145.598 147.743 149.957 140.27 149.443 132.618C149.333 127.511 146.361 123.018 142.761 119.596C133.401 110.231 120.336 105.94 110.645 96.9881C108.662 95.0681 106.833 92.9273 105.72 90.3785C104.064 86.4281 104.217 81.9689 105.398 77.8985C101.006 82.3673 99.8062 89.0873 100.325 95.1305ZM155.765 104.87C155.765 110.758 155.765 116.646 155.765 122.534C168.373 122.534 180.984 122.534 193.598 122.534V104.87H155.765ZM155.765 131.495C155.765 137.441 155.765 143.388 155.765 149.337C173.608 149.337 191.451 149.337 209.294 149.337C209.294 143.391 209.294 137.444 209.294 131.495C191.454 131.486 173.611 131.486 155.765 131.495ZM148.598 170.538C148.598 172.425 148.464 175.166 150.609 175.977C153.23 176.457 155.942 175.823 158.553 176.298C159.153 177.436 158.721 178.867 158.673 180.115C155.313 180.283 151.987 180.028 148.651 180.273C148.766 181.199 148.296 182.404 148.925 183.153C151.641 183.34 154.373 183.153 157.085 183.239C158.313 183.172 159.83 183.441 160.766 182.428C162.206 180.926 161.851 178.67 161.832 176.783C161.832 175.281 161.064 173.423 159.432 173.183C157.003 172.972 154.55 173.111 152.112 173.126C151.454 171.94 151.632 170.558 151.934 169.286C155.006 169.286 158.078 169.247 161.15 169.286C161.566 168.266 161.566 167.123 161.15 166.103C157.872 166.218 154.579 165.969 151.31 166.228C149.261 166.444 148.493 168.729 148.598 170.538ZM189.254 167.178C188.15 168.527 188.371 170.385 188.361 172.012C188.4 173.481 188.621 175.434 190.281 175.977C192.979 176.361 195.725 175.977 198.441 176.217C198.552 177.518 198.533 178.827 198.384 180.124C195.067 180.268 191.741 180.071 188.429 180.249C188.429 181.209 188.429 182.169 188.429 183.129C191.27 183.326 194.121 183.172 196.968 183.234C198.293 183.234 199.977 183.369 200.808 182.087C201.926 180.417 201.6 178.247 201.533 176.327C201.489 174.834 200.501 173.188 198.873 173.121C196.473 172.977 194.035 173.121 191.621 173.054C191.621 171.854 191.059 170.342 191.832 169.329C194.889 169.151 197.961 169.329 201.029 169.262C201.135 168.28 201.186 167.293 201.182 166.305C198.504 165.954 195.797 166.214 193.104 166.118C191.76 166.142 190.166 166.046 189.254 167.15V167.178ZM42.9502 169.641C42.2974 171.81 42.571 174.11 42.5038 176.361C42.5566 178.281 42.3934 180.326 43.4206 182.015C44.1838 183.326 45.7726 183.844 47.2126 183.854C50.011 183.892 52.8046 183.878 55.5982 183.854C55.6606 182.86 55.6702 181.871 55.6462 180.882C52.8094 180.7 49.9678 180.916 47.1358 180.767C46.7468 180.734 46.3842 180.557 46.1181 180.272C45.852 179.986 45.7015 179.612 45.6958 179.222C45.5522 176.985 45.5218 174.742 45.6046 172.502C45.6046 171.518 45.7054 170.102 46.9294 169.929C49.7278 169.679 52.5502 170.001 55.3486 169.794C56.1214 169.055 55.5646 167.75 55.5358 166.78C52.579 166.852 49.6126 166.703 46.6558 166.857C45.8281 166.873 45.0261 167.147 44.3618 167.641C43.6975 168.135 43.2039 168.824 42.9502 169.612V169.641ZM64.6846 167.02C63.9626 167.257 63.3211 167.69 62.8326 168.272C62.344 168.854 62.0279 169.561 61.9198 170.313C61.507 172.617 61.723 174.974 61.675 177.302C61.7182 179.222 61.7278 181.439 63.259 182.822C64.939 184.214 67.2478 183.782 69.259 183.854C71.2702 183.777 73.579 184.204 75.2686 182.831C76.9198 181.31 76.7998 178.857 76.8526 176.798C76.7758 174.398 77.0782 171.916 76.4062 169.569C75.9022 167.759 74.0062 166.718 72.187 166.794C69.691 166.794 67.147 166.526 64.6846 166.991V167.02ZM83.4046 169.151C83.4046 174.023 83.347 178.895 83.443 183.767C84.3646 183.71 85.5118 184.171 86.2846 183.566C86.4958 179.298 86.2222 175.022 86.4238 170.759C88.0894 174.014 89.1214 177.556 90.691 180.839C91.3294 182.318 93.1294 181.833 94.3966 181.842C94.9148 181.176 95.3381 180.441 95.6542 179.658C96.8494 176.567 98.1742 173.529 99.3262 170.423C99.6238 174.882 99.1918 179.366 99.5758 183.82H102.273C102.504 179.721 102.312 175.607 102.384 171.503C102.341 170.15 102.528 168.738 102.091 167.438C100.992 166.218 99.1198 166.958 97.6846 166.852C95.6638 170.351 94.8526 174.436 92.8318 177.926C91.363 174.59 90.1294 171.153 88.7374 167.788C88.1806 166.3 86.2798 166.828 85.0606 166.785C83.7694 166.612 83.3086 168.076 83.3806 169.122L83.4046 169.151ZM108.504 166.967C108.504 167.884 108.537 168.801 108.557 169.722C111.969 170.015 115.411 169.636 118.824 169.924C120.033 170.745 120.009 173.735 118.181 173.682C114.974 173.783 111.763 173.586 108.557 173.783C108.633 177.143 108.264 180.542 108.773 183.863C109.733 183.863 110.693 183.801 111.653 183.7C111.653 181.372 111.624 179.044 111.691 176.721C114.345 176.668 117.009 176.826 119.664 176.625C121.296 176.524 122.328 174.95 122.51 173.457C122.731 171.566 122.827 169.358 121.512 167.817C120.177 166.377 118.061 166.833 116.318 166.751C113.688 166.842 111.062 166.521 108.48 166.938L108.504 166.967ZM128.414 166.809C128.28 170.783 128.309 174.767 128.385 178.746C128.385 180.834 129.446 183.254 131.707 183.676C134.107 183.959 136.507 183.82 138.931 183.791C139.761 183.792 140.57 183.533 141.246 183.05C141.921 182.567 142.427 181.884 142.694 181.098C143.419 178.612 143.237 175.986 143.256 173.418C143.217 171.206 143.4 168.979 143.073 166.78C142.113 166.78 141.145 166.78 140.169 166.78C139.953 170.951 140.313 175.142 139.982 179.298C139.982 180.364 138.835 180.767 137.942 180.738C136.182 180.807 134.419 180.779 132.662 180.657C132.28 180.486 131.959 180.203 131.742 179.845C131.524 179.488 131.42 179.073 131.443 178.655C131.289 174.686 131.52 170.711 131.323 166.746C130.331 166.746 129.353 166.758 128.39 166.78L128.414 166.809ZM168.144 166.809C169.656 170.385 171.849 173.634 173.683 177.057C175.123 179.02 174.245 181.545 174.585 183.777C175.545 183.777 176.529 183.777 177.504 183.753C177.609 182.044 177.48 180.326 177.619 178.617C179.597 174.599 182.203 170.898 184.046 166.818C182.976 166.818 181.853 166.564 180.816 166.895C179.121 169.665 177.72 172.612 176.016 175.391C174.509 172.482 172.934 169.631 171.341 166.751C170.262 166.742 169.193 166.758 168.134 166.799L168.144 166.809Z" fill="#0A0A0A"/>
<path d="M66.0867 169.877C68.19 169.738 70.3002 169.738 72.4035 169.877C73.6707 169.992 73.7571 171.48 73.7715 172.469C73.7331 174.869 73.978 177.269 73.5843 179.621C73.4643 180.494 72.4083 180.73 71.6643 180.739C69.7683 180.739 67.8579 180.84 65.9667 180.662C64.6707 180.312 64.7619 178.795 64.7139 177.734C64.7139 175.661 64.6131 173.582 64.8051 171.518C64.7812 171.135 64.8983 170.757 65.1345 170.454C65.3706 170.152 65.7094 169.947 66.0867 169.877Z" fill="#0A0A0A"/>
<path d="M92.9571 61.8281H95.0163C95.0163 64.7081 95.0163 67.5881 95.0163 70.4681H92.9475C92.9475 69.3673 92.9475 68.2681 92.9475 67.1705C71.6419 67.1705 50.3347 67.1705 29.0259 67.1705C29.0259 66.4649 29.0259 65.7641 29.0259 65.0633C50.3347 65.0633 71.6435 65.0633 92.9523 65.0633C92.9523 63.9849 92.9539 62.9065 92.9571 61.8281Z" fill="#FEFEFE"/>
<path d="M100.095 61.8281H102.159C102.159 64.7081 102.159 67.5881 102.159 70.4681H100.104C100.085 67.5881 100.095 64.7081 100.095 61.8281Z" fill="#FEFEFE"/>
<path d="M121.407 61.8428H123.461C123.461 64.7228 123.461 67.6028 123.461 70.4828H121.393C121.407 67.598 121.393 64.718 121.407 61.8428Z" fill="#FEFEFE"/>
<path d="M128.487 61.8281H130.541C130.541 64.7081 130.541 67.5881 130.541 70.4681H128.477C128.48 67.5881 128.483 64.7081 128.487 61.8281Z" fill="#FEFEFE"/>
<path d="M135.625 61.8281H137.693C137.693 64.7081 137.693 67.5881 137.693 70.4681H135.634C135.62 67.5881 135.629 64.7081 135.625 61.8281Z" fill="#FEFEFE"/>
<path d="M107.174 61.834H109.238C109.238 64.714 109.238 67.594 109.238 70.474H107.174C107.174 67.5988 107.174 64.714 107.174 61.834Z" fill="#FEFEFE"/>
<path d="M114.25 61.8232L116.39 61.8472C116.39 64.7272 116.39 67.6072 116.39 70.4872H114.254C114.245 67.588 114.264 64.708 114.25 61.8232Z" fill="#FEFEFE"/>
<path d="M142.694 61.834H144.754C144.754 64.714 144.754 67.594 144.754 70.474H142.694C142.694 67.5988 142.694 64.714 142.694 61.834Z" fill="#FEFEFE"/>
<path d="M149.779 61.834H151.915C151.915 62.9188 151.915 64.0084 151.915 65.098C173.227 65.1236 194.539 65.1236 215.851 65.098C215.851 65.6068 215.851 66.634 215.851 67.1428C194.539 67.162 173.228 67.162 151.92 67.1428C151.92 68.2404 151.92 69.3396 151.92 70.4404H149.784C149.774 67.5892 149.788 64.7092 149.779 61.834Z" fill="#FEFEFE"/>
<path d="M100.325 95.1306C99.8067 89.0874 101.007 82.3674 105.399 77.9082C104.218 81.969 104.064 86.4282 105.72 90.3882C106.834 92.937 108.663 95.0874 110.645 96.9978C120.336 105.95 133.402 110.241 142.762 119.606C146.362 123.014 149.333 127.521 149.443 132.628C149.957 140.279 145.603 147.753 139.109 151.66L139.066 150.998C140.554 148.912 141.583 146.534 142.084 144.021C142.586 141.508 142.548 138.918 141.975 136.42C141.178 131.659 137.827 127.833 134.242 124.828C129.331 120.777 123.84 117.513 118.402 114.23C113.655 111.422 108.927 108.446 105 104.529C102.499 102.004 100.488 98.7594 100.325 95.1306Z" fill="#FEFEFE"/>
<path d="M133.21 74.1501C138.591 73.9197 143.991 73.9581 149.376 74.1069C149.443 75.3933 149.482 76.6845 149.472 77.9757C144.058 81.0621 138.682 84.2157 133.282 87.3213C133.032 82.9351 133.008 78.5389 133.21 74.1501Z" fill="#0A0A0A"/>
<path d="M100.848 137.813C101.184 135.278 100.541 132.653 101.27 130.181C101.429 137.289 101.309 144.398 101.357 151.507C98.712 152.073 95.9952 151.781 93.3168 151.718C93.1776 149.318 93.216 146.885 93.1152 144.47C94.3325 143.508 95.4929 142.476 96.5904 141.379C95.5024 140.313 94.4272 139.235 93.3648 138.144C95.856 137.933 98.3664 138.206 100.848 137.813Z" fill="#0A0A0A"/>
<path d="M133.281 87.3212C138.681 84.206 144.057 81.0812 149.472 77.9756C149.448 85.07 149.472 92.1644 149.472 99.2636C143.352 95.6636 137.169 92.174 131.059 88.5692C131.798 88.1612 132.542 87.7484 133.281 87.3212Z" fill="white"/>
<path d="M101.271 130.181C107.377 133.809 113.602 137.227 119.669 140.913C113.569 144.451 107.444 147.945 101.357 151.507C101.309 144.398 101.415 137.289 101.271 130.181Z" fill="white"/>
<path d="M155.765 78.0146C173.611 78.0146 191.455 78.0146 209.295 78.0146C209.295 83.9282 209.295 89.8482 209.295 95.7746C191.448 95.7746 173.603 95.7746 155.76 95.7746L155.765 78.0146Z" fill="#FD8E0F"/>
<path d="M70.6275 77.9904C80.2947 77.88 89.8275 82.008 96.6147 88.872C92.5875 92.88 88.6275 96.96 84.5187 100.872C81.9123 98.1264 78.4227 96.432 74.7891 95.496C73.4484 95.0321 72.0812 94.649 70.6947 94.3488C70.4595 88.9056 70.6275 83.448 70.6275 77.9904Z" fill="#FD8E0F"/>
<path d="M189.255 167.151C190.167 166.047 191.76 166.143 193.056 166.114C195.749 166.21 198.456 165.951 201.135 166.301C201.139 167.289 201.087 168.276 200.981 169.258C197.914 169.311 194.842 169.147 191.784 169.325C191.012 170.338 191.554 171.85 191.573 173.05C193.973 173.112 196.412 172.973 198.826 173.117C200.453 173.184 201.442 174.831 201.485 176.323C201.552 178.243 201.879 180.394 200.76 182.083C199.935 183.365 198.25 183.207 196.92 183.231C194.074 183.168 191.223 183.322 188.381 183.125C188.381 182.165 188.381 181.205 188.381 180.245C191.693 180.067 195.02 180.245 198.336 180.12C198.485 178.823 198.504 177.514 198.394 176.213C195.682 175.973 192.936 176.357 190.234 175.973C188.592 175.431 188.372 173.477 188.314 172.008C188.372 170.357 188.151 168.499 189.255 167.151Z" fill="#FD8E0F"/>
<path d="M42.9504 169.612C43.1937 168.818 43.6797 168.12 44.34 167.617C45.0004 167.113 45.8019 166.829 46.632 166.804C49.5888 166.651 52.5552 166.804 55.512 166.728C55.5408 167.688 56.0976 169.003 55.3248 169.742C52.5264 169.948 49.704 169.627 46.9056 169.876C45.6816 170.059 45.5952 171.465 45.5808 172.449C45.498 174.689 45.5284 176.932 45.672 179.169C45.6777 179.559 45.8282 179.934 46.0943 180.219C46.3604 180.505 46.7231 180.681 47.112 180.715C49.944 180.864 52.7856 180.648 55.6224 180.83C55.6224 181.819 55.6224 182.808 55.5744 183.801C52.7808 183.84 49.9872 183.854 47.1888 183.801C45.7488 183.801 44.16 183.273 43.3968 181.963C42.3696 180.273 42.5328 178.204 42.48 176.308C42.5712 174.081 42.2976 171.782 42.9504 169.612Z" fill="#FD8E0F"/>
<path d="M44.208 88.641C47.6802 85.2008 51.8031 82.4871 56.336 80.6583C60.8688 78.8295 65.7206 77.9223 70.608 77.9898C70.608 83.4474 70.44 88.905 70.6752 94.3578C72.0617 94.658 73.429 95.0411 74.7696 95.505C68.28 94.1514 61.0944 95.9322 56.3472 100.665C52.2288 96.7434 48.312 92.5962 44.208 88.641Z" fill="#FEA209"/>
<path d="M155.765 104.87H193.598V122.539C180.984 122.539 168.373 122.539 155.765 122.539C155.771 116.648 155.771 110.758 155.765 104.87Z" fill="#FEA209"/>
<path d="M64.6849 166.992C67.1473 166.512 69.6913 166.795 72.1873 166.766C73.9873 166.689 75.9025 167.726 76.4065 169.54C77.0785 171.888 76.7761 174.364 76.8529 176.769C76.8001 178.828 76.9201 181.281 75.2689 182.803C73.5697 184.176 71.2705 183.763 69.2593 183.825C67.2481 183.744 64.9393 184.185 63.2593 182.793C61.7281 181.411 61.7185 179.174 61.6753 177.273C61.7233 174.945 61.5073 172.588 61.9201 170.284C62.0282 169.532 62.3443 168.826 62.8329 168.244C63.3214 167.662 63.9629 167.228 64.6849 166.992ZM66.0865 169.872C65.7109 169.943 65.3744 170.15 65.1402 170.452C64.9059 170.754 64.7901 171.132 64.8145 171.513C64.6225 173.577 64.7425 175.656 64.7233 177.729C64.7713 178.79 64.6801 180.307 65.9761 180.657C67.8673 180.835 69.7777 180.744 71.6737 180.734C72.4081 180.734 73.4641 180.489 73.5937 179.616C73.9873 177.259 73.7425 174.844 73.7809 172.464C73.7809 171.475 73.6801 169.987 72.4129 169.872C70.3063 169.734 68.1928 169.735 66.0865 169.876V169.872Z" fill="#FEA209"/>
<path d="M168.134 166.8C169.2 166.759 170.269 166.743 171.341 166.752C172.934 169.632 174.509 172.484 176.016 175.392C177.71 172.613 179.112 169.666 180.816 166.896C181.853 166.565 182.976 166.8 184.046 166.82C182.203 170.9 179.597 174.6 177.619 178.618C177.48 180.327 177.619 182.045 177.504 183.754C176.544 183.783 175.555 183.788 174.585 183.778C174.245 181.536 175.113 179.012 173.683 177.058C171.825 173.626 169.632 170.376 168.134 166.8Z" fill="#FEA209"/>
<path d="M33.2547 114.859C33.1683 105.096 37.3107 95.4814 44.2323 88.6318C48.3363 92.587 52.2531 96.7342 56.3907 100.656C52.6069 104.429 50.4249 109.517 50.2995 114.859C44.6067 114.859 38.9187 114.801 33.2547 114.859Z" fill="#FFB506"/>
<path d="M148.599 170.539C148.493 168.754 149.261 166.469 151.311 166.258C154.58 165.998 157.872 166.258 161.151 166.133C161.566 167.153 161.566 168.295 161.151 169.315C158.079 169.258 155.007 169.286 151.935 169.315C151.632 170.573 151.455 171.955 152.112 173.155C154.551 173.155 157.004 173.002 159.432 173.213C161.088 173.467 161.832 175.31 161.832 176.813C161.832 178.699 162.197 180.955 160.767 182.458C159.831 183.47 158.314 183.202 157.085 183.269C154.359 183.192 151.628 183.37 148.925 183.182C148.296 182.438 148.767 181.234 148.652 180.302C151.988 180.058 155.333 180.302 158.674 180.144C158.722 178.896 159.154 177.466 158.554 176.328C155.943 175.848 153.231 176.467 150.61 176.006C148.455 175.142 148.589 172.402 148.599 170.539Z" fill="#FFB506"/>
<path d="M83.3809 169.123C83.3089 168.077 83.7697 166.613 85.0705 166.762C86.2897 166.81 88.1905 166.282 88.7473 167.765C90.1393 171.125 91.3729 174.566 92.8417 177.902C94.8625 174.413 95.6737 170.328 97.6945 166.829C99.1345 166.915 101.002 166.195 102.101 167.414C102.538 168.715 102.351 170.126 102.394 171.48C102.322 175.584 102.514 179.698 102.283 183.797H99.5857C99.2017 179.342 99.6337 174.859 99.3361 170.4C98.1841 173.506 96.8593 176.544 95.6641 179.635C95.3372 180.418 94.9026 181.152 94.3729 181.814C93.1057 181.814 91.3057 182.294 90.6673 180.811C89.0977 177.509 88.0657 173.966 86.4001 170.731C86.1985 174.994 86.4721 179.27 86.2609 183.538C85.4881 184.142 84.3409 183.682 83.4193 183.739C83.3233 178.867 83.3809 173.995 83.3809 169.123Z" fill="#FFB506"/>
<path d="M33.308 114.93C38.996 114.863 44.684 114.93 50.3768 114.902C50.3444 117.545 50.8357 120.168 51.8222 122.62C52.8087 125.073 54.2709 127.305 56.1245 129.19C57.9781 131.074 60.1864 132.573 62.6222 133.6C65.0579 134.626 67.6727 135.161 70.316 135.172C75.683 135.193 80.8411 133.093 84.668 129.33C87.572 132.311 90.5144 135.254 93.4424 138.215C94.5048 139.303 95.58 140.382 96.668 141.45C95.5704 142.547 94.4101 143.579 93.1928 144.542C81.2744 154.026 63.4328 154.775 50.588 146.654C39.884 139.977 33.0296 127.559 33.308 114.93Z" fill="#FFC900"/>
<path d="M155.765 131.496C173.611 131.496 191.456 131.496 209.299 131.496C209.299 137.442 209.299 143.389 209.299 149.338C191.459 149.338 173.616 149.338 155.769 149.338C155.766 143.392 155.765 137.445 155.765 131.496Z" fill="#FFC900"/>
<path d="M108.48 166.939C111.063 166.522 113.688 166.843 116.29 166.738C118.032 166.819 120.13 166.368 121.483 167.803C122.799 169.344 122.703 171.552 122.482 173.443C122.299 174.936 121.267 176.51 119.635 176.611C116.981 176.813 114.317 176.654 111.663 176.707C111.595 179.03 111.629 181.358 111.624 183.686C110.664 183.787 109.704 183.83 108.744 183.85C108.235 180.49 108.605 177.13 108.528 173.77C111.735 173.573 114.946 173.77 118.152 173.669C119.981 173.722 120.005 170.731 118.795 169.91C115.383 169.622 111.941 170.002 108.528 169.709C108.514 168.773 108.499 167.856 108.48 166.939Z" fill="#F8C958"/>
<path d="M128.39 166.781C129.35 166.758 130.31 166.747 131.27 166.747C131.467 170.712 131.237 174.686 131.39 178.656C131.367 179.074 131.471 179.489 131.689 179.846C131.907 180.203 132.228 180.486 132.609 180.657C134.367 180.78 136.129 180.807 137.889 180.739C138.782 180.773 139.934 180.369 139.929 179.299C140.261 175.142 139.901 170.952 140.117 166.781C141.077 166.758 142.045 166.758 143.021 166.781C143.347 168.979 143.165 171.206 143.203 173.419C143.203 175.977 143.366 178.603 142.641 181.099C142.372 181.885 141.863 182.566 141.187 183.048C140.51 183.529 139.699 183.786 138.869 183.782C136.469 183.811 134.035 183.95 131.645 183.667C129.384 183.245 128.323 180.825 128.323 178.737C128.294 174.739 128.256 170.755 128.39 166.781Z" fill="#F8C958"/>
</g>
<defs>
<clipPath id="clip0_544_16">
<rect width="245.069" height="245.102" fill="white"/>
</clipPath>
</defs>
</svg>
