<svg width="1300" height="732" viewBox="0 0 1300 732" fill="none" xmlns="http://www.w3.org/2000/svg">
<g clip-path="url(#clip0_81_2)">
<path d="M865.969 15L866.326 15.0039C873.811 15.1796 880.046 20.8652 880.877 28.3428L888.508 97C888.96 101.071 887.727 105.15 885.097 108.29L795.068 215.744L869.301 213.351C873.361 213.22 877.301 214.741 880.219 217.566C883.137 220.392 884.784 224.281 884.784 228.343V244.261L919.996 29.0781L920.056 28.7393C921.379 21.6599 927.564 16.5001 934.799 16.5H1029.3C1036.67 16.5 1042.94 21.8516 1044.11 29.127L1074.6 219.415V35.1758C1074.6 26.8916 1081.32 20.1758 1089.6 20.1758H1163.07C1167.58 20.1758 1171.85 22.2071 1174.7 25.7061C1176.8 28.278 1177.95 31.4424 1178.06 34.6934C1192.1 22.14 1210.43 16.5 1231.4 16.5C1248.22 16.5001 1263.69 20.3805 1277.32 28.5654C1282.57 31.7145 1285.37 37.7333 1284.41 43.7754L1273.39 113.253C1272.7 117.64 1270.09 121.493 1266.28 123.774C1262.47 126.055 1257.84 126.53 1253.65 125.069C1248.54 123.293 1243.95 122.023 1239.84 121.2C1236.02 120.437 1231.75 120.022 1226.99 120.021C1210.04 120.021 1199.8 125.003 1193.36 132.782C1186.47 141.105 1181.74 155.24 1181.74 177.807V292.5C1181.74 300.784 1175.03 307.5 1166.74 307.5H1089.6C1087.05 307.5 1084.65 306.864 1082.55 305.744C1079.72 308.77 1075.76 310.5 1071.6 310.5H1006.2C998.572 310.5 992.159 304.776 991.296 297.198L988.596 273.498V273.497C987.692 265.987 987.917 257.957 990.86 250.737L976.878 252.179L971.908 297.147C971.068 304.748 964.646 310.5 956.999 310.5H891.6C887.794 310.5 884.154 309.053 881.396 306.493C878.646 309.854 874.466 312 869.784 312H683.229C677.518 312 672.489 308.791 669.96 303.999C667.255 307.926 662.728 310.5 657.6 310.5H582.3C575.465 310.5 569.495 305.88 567.779 299.265L555.604 252.303L559.437 294.132C559.821 298.33 558.421 302.497 555.579 305.611C552.737 308.726 548.715 310.5 544.499 310.5H477.899C474.307 310.5 471.01 309.237 468.428 307.131C466.006 308.808 463.068 309.792 459.899 309.792H386.045C381.288 309.792 376.812 307.535 373.983 303.71C372.536 301.752 371.608 299.501 371.233 297.161C358.585 308.047 343.466 313.5 326.591 313.5C315.388 313.5 304.8 311.203 295.119 306.343C285.628 301.577 277.527 294.789 270.834 286.234C270.713 286.08 270.595 285.923 270.48 285.765C267.853 282.12 265.498 278.237 263.4 274.135V295.5C263.4 303.784 256.684 310.5 248.4 310.5H185.4C181.254 310.5 177.292 308.783 174.456 305.758C171.62 302.732 170.164 298.668 170.432 294.53L172.202 267.207C169.476 269.88 165.751 271.5 161.7 271.5H119.7C113.579 271.5 108.185 267.799 105.881 262.33L107.969 294.53C108.237 298.668 106.78 302.732 103.944 305.758C101.109 308.783 97.1467 310.5 93 310.5H30C21.7157 310.5 15 303.784 15 295.5V31.5C15 23.2157 21.7157 16.5 30 16.5H111.9L112.24 16.5039C119.366 16.6637 125.418 21.8298 126.669 28.8789L139.199 99.4746L151.73 28.8789C153.002 21.7179 159.227 16.5 166.5 16.5H248.4C256.684 16.5002 263.4 23.2159 263.4 31.5V162.871C265.542 158.835 267.987 155.008 270.755 151.408C270.762 151.398 270.77 151.389 270.777 151.379C285.008 132.959 305.125 124.042 329.176 124.042C339.869 124.042 349.968 125.987 359.148 130.268H359.147C359.611 130.478 360.071 130.694 360.527 130.915C359.878 129.859 359.208 128.95 358.528 128.176C358.481 128.122 358.434 128.067 358.388 128.013C354.909 123.937 348.147 120.296 334.346 120.296C325.094 120.296 315.878 121.941 306.626 125.319C302.275 126.908 297.434 126.398 293.51 123.937C289.586 121.475 287.019 117.339 286.556 112.73L279.17 39.3057C278.421 31.864 283.27 25.0074 290.535 23.2324C300.138 20.8866 309.342 19.1627 318.132 18.0928C326.834 17.0335 335.441 16.5 343.947 16.5C384.347 16.5 417.481 27.8277 440.808 52.6318L441.896 53.7812C450.731 63.2532 457.692 74.1019 462.899 86.1982V31.5C462.899 23.2157 469.615 16.5 477.899 16.5H553.199C560.034 16.5 566.005 21.1197 567.72 27.7354L579.893 74.6914L576.062 32.8682C575.677 28.6696 577.078 24.5029 579.92 21.3887C582.762 18.2746 586.783 16.5001 590.999 16.5H657.6C661.54 16.5 665.125 18.0207 667.802 20.5059C670.553 17.1453 674.732 15 679.414 15H865.969ZM367.026 189.541C366.271 190.156 365.562 190.823 364.894 191.541C361.129 195.598 358.578 201.54 358.578 210.983C358.578 215.27 359.127 218.026 359.715 219.722C360.439 218.792 361.529 216.996 362.673 213.765L362.735 213.59C364.821 207.923 366.342 200.01 367.026 189.541ZM679.897 113.649C677.342 113.732 674.835 113.159 672.6 112.02V208.566L754.129 111.255L679.897 113.649Z" fill="#4177D3" stroke="#EFEAD9" stroke-width="30" stroke-linejoin="round"/>
<path d="M659 572.2L739 249.4L1081.8 431.4" stroke="#EFEAD9" stroke-width="8"/>
<circle cx="737.303" cy="243.303" r="14.5737" transform="rotate(-17.6274 737.303 243.303)" fill="#9F3BFF"/>
<circle cx="822.578" cy="587.904" r="60" transform="rotate(-17.6274 822.578 587.904)" fill="#EFEAD9"/>
<path d="M1111.71 362.2C1113.99 361.754 1116.37 362.212 1118.33 363.486C1120.43 364.846 1121.86 367.014 1122.29 369.472L1131.59 422.213C1132.42 426.874 1129.49 431.375 1124.89 432.512L1081.26 443.305C1107.55 443.817 1128.5 451.197 1142.28 467.176L1142.28 467.181C1156.07 483.18 1160.7 505.686 1158.16 532.871C1158.16 532.88 1158.16 532.888 1158.16 532.896C1156.89 546.021 1152.34 557.581 1144.31 567.216C1136.34 576.785 1125.33 583.989 1111.84 589.127C1111.83 589.131 1111.82 589.136 1111.8 589.141C1097.55 594.499 1081.49 597.338 1063.74 597.833L1068.67 637.229C1069.28 642.102 1065.87 646.564 1061 647.256L910.446 668.687C906.947 669.185 903.484 667.588 901.588 664.612C894.208 673.683 885.592 681.243 875.747 687.235C875.712 687.256 875.677 687.277 875.642 687.298C863.598 694.408 850.571 698.68 836.649 700.085C836.631 700.087 836.612 700.089 836.594 700.091C822.656 701.411 808.963 699.747 795.6 695.132C795.573 695.122 795.545 695.112 795.517 695.103C791.856 693.798 788.286 692.296 784.808 690.6C783.432 692.236 781.471 693.391 779.191 693.716L628.632 715.146C625.101 715.649 621.606 714.018 619.722 710.989C617.838 707.961 617.921 704.106 619.932 701.16C630.378 685.867 640.055 669.043 648.951 650.671C657.798 632.326 663.132 617.192 665.305 605.12C667.452 593.191 666.339 585.257 663.612 580.154C660.45 575.596 657.066 573.023 653.58 571.732C651.018 570.81 649.034 571.057 646.495 573.116C643.355 575.663 639.59 580.971 635.731 590.403C634.76 592.777 632.822 594.625 630.404 595.48C627.986 596.336 625.318 596.12 623.07 594.886L571.556 566.604C567.443 564.347 565.755 559.307 567.677 555.027C572.176 545.011 578.771 534.781 587.279 524.338L588.088 523.349C605.119 502.704 624.86 489.494 647.378 484.736C647.395 484.733 647.411 484.73 647.427 484.727C653.679 483.442 660.819 482.916 668.739 483.032C668.751 483.032 668.764 483.032 668.776 483.032C684.962 483.336 699.266 486.738 711.295 493.68L711.296 493.68C723.012 500.428 731.621 510.043 737.145 522.184C738.386 520.221 739.695 518.281 741.072 516.364C741.081 516.352 741.09 516.34 741.099 516.327C749.249 505.108 759.108 495.982 770.66 489.045C770.664 489.042 770.669 489.04 770.673 489.037C782.353 482.051 794.976 477.812 808.459 476.351L809.767 476.218C823.712 474.818 837.422 476.49 850.806 481.192L850.805 481.192C854.872 482.617 858.831 484.292 862.68 486.213C864.682 483.446 866.824 480.662 869.104 477.864C886.315 456.66 906.321 443.11 929.192 438.277L929.241 438.267C935.492 436.982 942.633 436.456 950.552 436.572C950.565 436.572 950.577 436.573 950.589 436.573C961.999 436.788 972.472 438.543 981.874 441.99L974.333 405.34C973.361 400.614 976.289 395.962 980.971 394.794L1111.25 362.302L1111.71 362.2ZM935.38 525.269C932.825 524.352 930.844 524.601 928.309 526.656C925.169 529.203 921.403 534.511 917.544 543.944C917.362 544.389 917.146 544.816 916.899 545.221C921.061 555.423 923.831 566.365 925.238 578.01C926.952 591.912 926.516 605.179 923.913 617.761C926.245 613.342 928.53 608.826 930.764 604.212C939.612 585.867 944.946 570.733 947.119 558.661C949.266 546.729 948.151 538.794 945.422 533.691C942.257 529.13 938.87 526.558 935.38 525.269ZM835.566 568.326C830.031 563.739 824.098 561.932 817.273 562.61C810.482 563.285 805.214 566.2 800.965 571.699C800.953 571.715 800.94 571.732 800.927 571.748C796.766 577.058 795.067 583.067 795.925 590.365C796.839 597.526 799.954 603.199 805.493 607.805C811.09 612.322 817.094 614.142 823.958 613.531C830.769 612.776 835.998 609.866 840.161 604.572C844.435 599.036 846.128 592.947 845.289 585.777C844.376 578.633 841.236 572.966 835.609 568.361C835.595 568.35 835.58 568.338 835.566 568.326ZM1047.35 505.436C1039.85 504.924 1032.77 504.958 1026.08 505.519C1026.24 507.793 1026.34 510.113 1026.37 512.479C1026.77 512.543 1027.17 512.63 1027.56 512.748C1032.7 514.296 1037.91 515.627 1043.19 516.74C1052.3 518.442 1059.07 518.848 1063.79 518.337C1066.67 517.97 1068.26 517.293 1069.05 516.771C1069.56 516.441 1069.81 516.138 1069.99 515.762C1070.04 515.277 1069.95 514.447 1069.11 513.034C1068.26 511.826 1066.69 510.376 1063.77 508.953C1060.35 507.351 1055.45 506.107 1048.73 505.54L1047.35 505.436Z" fill="#FE168A" stroke="#EFEAD9" stroke-width="18" stroke-linejoin="round"/>
<circle cx="823.303" cy="588.303" r="14.5737" transform="rotate(-17.6274 823.303 588.303)" fill="#9F3BFF"/>
</g>
<defs>
<clipPath id="clip0_81_2">
<rect width="1300" height="732" fill="white"/>
</clipPath>
</defs>
</svg>
